<svg width="48" height="62" viewBox="0 0 48 62" fill="none" xmlns="http://www.w3.org/2000/svg">
<path d="M46.8795 29.794C43.7799 26.507 39.6472 24.258 35.3422 23.393C33.448 22.874 31.5538 22.528 29.6596 22.355C34.4812 16.646 33.6202 7.996 27.9376 3.152C22.2551 -1.692 13.6451 -0.827001 8.82352 4.882C4.00195 10.591 4.86294 19.241 10.5455 24.085C11.5787 24.95 12.6119 25.642 13.6451 25.988V29.794L10.8899 27.199C8.47912 24.777 4.51854 24.777 1.93556 27.199C-0.47523 29.621 -0.64743 33.427 1.76336 35.849L9.68452 45.191C10.0289 47.613 10.8899 49.862 12.0953 51.938C12.9563 53.495 14.1617 55.052 15.3671 56.263V59.55C15.3671 60.588 16.0559 61.28 17.0891 61.28H40.5082C41.3692 61.28 42.2302 60.415 42.2302 59.55V55.052C45.5019 51.073 47.2239 46.056 47.2239 41.039V31.005C47.3961 30.313 47.2239 29.967 46.8795 29.794ZM8.99572 13.532C8.99572 7.823 13.6451 3.325 19.3277 3.498C25.0102 3.498 29.4874 8.169 29.3152 13.878C29.3152 16.992 27.9376 19.76 25.5268 21.663V13.013C25.4389 11.5137 24.7835 10.105 23.6949 9.07572C22.6063 8.04639 21.167 7.4744 19.6721 7.477C16.5725 7.304 13.8173 9.899 13.8173 13.013V22.009C10.8899 20.279 9.16792 16.992 8.99572 13.532ZM43.9521 40.866C44.1243 45.364 42.5746 49.689 39.6472 53.149C39.3028 53.495 38.9584 53.841 38.9584 54.36V57.993H18.9833V55.571C18.9833 55.052 18.6389 54.533 18.2945 54.187C17.0891 53.149 16.0559 51.938 15.1949 50.381C14.1617 48.651 13.4729 46.575 13.1285 44.499C13.1285 44.153 12.9563 43.807 12.7841 43.461L4.51854 33.6C4.00195 33.081 3.65755 32.389 3.65755 31.524C3.65755 30.832 4.00195 29.967 4.51854 29.448C5.72394 28.41 7.44593 28.41 8.65132 29.448L13.6451 34.465V39.655L16.9169 37.925V13.013C17.0891 11.802 18.1223 10.764 19.4999 10.937C20.7053 10.937 21.9107 11.802 21.9107 13.013V32.908L25.3546 33.6V25.642C25.5268 25.469 25.699 25.469 25.8712 25.296C27.0766 25.296 28.282 25.469 29.4874 25.642V34.465L32.2426 34.984V25.988L34.309 26.507C35.17 26.68 36.031 27.026 36.892 27.372V36.022L39.6472 36.541V28.583C41.197 29.275 42.5746 30.313 43.7799 31.524L43.9521 40.866Z" fill="#CB0000"/>
</svg>
