<svg width="45" height="45" viewBox="0 0 45 45" fill="none" xmlns="http://www.w3.org/2000/svg">
<path d="M45 22.5C45 34.9264 34.9264 45 22.5 45C10.0736 45 0 34.9264 0 22.5C0 10.0736 10.0736 0 22.5 0C34.9264 0 45 10.0736 45 22.5Z" fill="#CB0000"/>
<path d="M30.278 24.5926L31.1807 19.5758H25.5334V16.3204C25.5334 14.9477 26.3222 13.61 28.8518 13.61H31.4194V9.33897C31.4194 9.33897 29.0891 9 26.8612 9C22.2102 9 19.1701 11.4026 19.1701 15.7523V19.5758H14V24.5926H19.1701V36.7202C20.2226 36.8608 21.2864 36.9312 22.3517 36.931C23.4171 36.9312 24.4809 36.8608 25.5334 36.7202V24.5926H30.278Z" fill="white"/>
</svg>
