<svg width="45" height="45" viewBox="0 0 45 45" fill="none" xmlns="http://www.w3.org/2000/svg">
<circle cx="22.5" cy="22.5" r="22.5" fill="#CB0000"/>
<path d="M22.9212 8.91992C19.1191 8.91992 18.6418 8.93658 17.1486 9.00448C15.6581 9.0728 14.6407 9.3087 13.7506 9.65492C12.8297 10.0125 12.0486 10.4909 11.2705 11.2693C10.4917 12.0475 10.0133 12.8286 9.65464 13.7491C9.30744 14.6395 9.07126 15.6573 9.0042 17.147C8.93742 18.6404 8.91992 19.1178 8.91992 22.9201C8.91992 26.7223 8.93672 27.198 9.00448 28.6913C9.07308 30.1817 9.30898 31.1991 9.65492 32.0892C10.0128 33.0101 10.4911 33.7912 11.2695 34.5693C12.0475 35.3481 12.8286 35.8276 13.7488 36.1852C14.6396 36.5314 15.6571 36.7673 17.1473 36.8356C18.6407 36.9035 19.1175 36.9202 22.9195 36.9202C26.722 36.9202 27.1978 36.9035 28.691 36.8356C30.1814 36.7673 31.1999 36.5314 32.0908 36.1852C33.0113 35.8276 33.7912 35.3481 34.569 34.5693C35.3479 33.7912 35.8261 33.0101 36.1849 32.0896C36.529 31.1991 36.7654 30.1814 36.8354 28.6916C36.9024 27.1983 36.9199 26.7223 36.9199 22.9201C36.9199 19.1178 36.9024 18.6407 36.8354 17.1473C36.7654 15.6569 36.529 14.6396 36.1849 13.7495C35.8261 12.8286 35.3479 12.0475 34.569 11.2693C33.7904 10.4906 33.0115 10.0122 32.0899 9.65506C31.1974 9.3087 30.1795 9.07266 28.689 9.00448C27.1957 8.93658 26.7202 8.91992 22.9168 8.91992H22.9212ZM21.6652 11.4429C22.0381 11.4423 22.454 11.4429 22.9212 11.4429C26.6593 11.4429 27.1023 11.4563 28.5784 11.5234C29.9434 11.5858 30.6843 11.8139 31.1778 12.0055C31.8312 12.2592 32.297 12.5626 32.7867 13.0527C33.2767 13.5427 33.5799 14.0093 33.8343 14.6627C34.026 15.1555 34.2543 15.8964 34.3165 17.2614C34.3835 18.7373 34.3981 19.1805 34.3981 22.9168C34.3981 26.6532 34.3835 27.0965 34.3165 28.5723C34.254 29.9373 34.026 30.6782 33.8343 31.1711C33.5806 31.8245 33.2767 32.2897 32.7867 32.7794C32.2967 33.2694 31.8315 33.5727 31.1778 33.8265C30.6849 34.019 29.9434 34.2465 28.5784 34.3089C27.1026 34.376 26.6593 34.3905 22.9212 34.3905C19.1829 34.3905 18.7398 34.376 17.2641 34.3089C15.8991 34.2459 15.1582 34.0179 14.6643 33.8262C14.011 33.5724 13.5443 33.2691 13.0543 32.7791C12.5643 32.2891 12.261 31.8236 12.0066 31.17C11.815 30.677 11.5866 29.9362 11.5245 28.5712C11.4574 27.0953 11.444 26.652 11.444 22.9133C11.444 19.1748 11.4574 18.7338 11.5245 17.2579C11.5869 15.8929 11.815 15.152 12.0066 14.6585C12.2605 14.0051 12.5643 13.5385 13.0544 13.0485C13.5444 12.5585 14.011 12.2551 14.6644 12.0009C15.1579 11.8084 15.8991 11.5809 17.2641 11.5182C18.5556 11.4598 19.0561 11.4423 21.6652 11.4394V11.4429ZM30.3944 13.7674C29.4669 13.7674 28.7144 14.5192 28.7144 15.4469C28.7144 16.3744 29.4669 17.1269 30.3944 17.1269C31.3219 17.1269 32.0744 16.3744 32.0744 15.4469C32.0744 14.5194 31.3219 13.7674 30.3944 13.7674ZM22.9212 15.7304C18.9508 15.7304 15.7316 18.9495 15.7316 22.9201C15.7316 26.8906 18.9508 30.1082 22.9212 30.1082C26.8917 30.1082 30.1098 26.8906 30.1098 22.9201C30.1098 18.9497 26.8917 15.7304 22.9212 15.7304ZM22.9212 18.2533C25.4984 18.2533 27.5879 20.3425 27.5879 22.9201C27.5879 25.4973 25.4984 27.5868 22.9212 27.5868C20.3438 27.5868 18.2546 25.4973 18.2546 22.9201C18.2546 20.3425 20.3438 18.2533 22.9212 18.2533Z" fill="white"/>
</svg>
