<svg width="327" height="165" viewBox="0 0 327 165" fill="none" xmlns="http://www.w3.org/2000/svg">
<path d="M99.1997 0H101.371C101.897 0.188191 102.454 0.305954 102.949 0.568035C104.02 1.11529 104.939 1.96157 105.487 3.00181C106.262 4.5108 106.358 6.25878 106.139 7.90169C113.491 7.90746 120.845 7.90169 128.198 7.904C128.199 8.2596 128.2 8.61405 128.2 8.96964C126.774 8.9708 125.348 8.97888 123.921 8.96733C123.902 14.3683 123.916 19.7681 123.915 25.1679C123.875 25.6944 124.083 26.3409 124.687 26.4771C125.254 26.5556 125.833 26.5002 126.406 26.5118C126.422 26.8604 126.425 27.2103 126.419 27.5601C123.953 27.5601 121.486 27.5532 119.021 27.5647C119.004 27.2103 119.013 26.8547 119.053 26.5025C119.606 26.5014 120.165 26.5556 120.716 26.4737C121.208 26.3894 121.444 25.8976 121.518 25.4727C121.636 24.6991 121.572 23.9164 121.559 23.1393C120.188 24.2639 118.519 25.0732 116.743 25.4138C115.452 25.6759 114.059 25.4288 112.96 24.7303C111.558 23.9002 110.641 22.5471 109.896 21.1789C109.33 20.1179 108.583 19.0892 107.477 18.4877C107.614 18.0917 107.783 17.7038 107.986 17.3332C109.683 18.7844 112.361 18.8179 114.279 17.7465C115.197 17.2292 115.568 16.1867 115.699 15.2296C115.832 13.9896 115.892 12.7 115.469 11.5016C115.141 10.6356 114.568 9.80322 113.7 9.35757C113.113 9.04815 112.431 8.96272 111.77 8.9708C109.846 8.97542 107.923 8.96734 106.001 8.97773C105.991 14.4168 105.996 19.8558 105.999 25.2949C105.968 25.804 106.244 26.3882 106.818 26.4864C107.37 26.5499 107.928 26.5048 108.482 26.5129C108.484 26.8627 108.484 27.2114 108.484 27.5613C106.02 27.5486 103.556 27.574 101.092 27.5509C101.093 27.2045 101.095 26.8593 101.099 26.5141C101.706 26.4875 102.335 26.5949 102.928 26.4344C103.529 26.1862 103.639 25.4819 103.648 24.9254C103.651 19.6088 103.661 14.2909 103.649 8.97311C101.566 8.9708 99.4828 8.97773 97.3997 8.96849C97.3295 10.8261 97.3864 12.6861 97.3682 14.5449C97.3731 18.0859 97.3586 21.6269 97.3743 25.1679C97.3561 25.6759 97.5134 26.304 98.0929 26.4679C98.6735 26.5845 99.2747 26.4956 99.8651 26.5222C99.8711 26.8708 99.8747 27.2184 99.8747 27.567C97.4094 27.5682 94.944 27.5751 92.4774 27.5636C92.4798 27.216 92.4847 26.8697 92.4919 26.5233C93.046 26.506 93.6048 26.566 94.1541 26.4864C94.7214 26.3905 94.9512 25.8006 95.0057 25.3191C95.0698 24.541 95.0226 23.7593 95.0383 22.9789C95.0154 21.4895 95.14 19.9747 94.7674 18.5119C94.6089 17.7915 94.1976 17.1288 93.6339 16.6312C92.4109 15.5725 90.3144 15.2919 89.014 16.376C87.8636 17.3193 87.491 18.8225 87.3918 20.208C87.3216 21.6269 87.3108 23.0793 87.7196 24.4578C87.964 25.3838 88.5567 26.2093 89.3709 26.7635C89.0164 27.0371 88.6547 27.3015 88.293 27.5647C87.5648 27.1941 86.8946 26.7104 86.3696 26.0996C85.247 24.8619 84.7534 23.2017 84.745 21.5853C84.7026 19.9228 85.1442 18.1944 86.274 16.8933C87.3797 15.5367 89.1495 14.6962 90.9592 14.7354C92.4508 14.6939 93.9036 15.248 95.0359 16.159C95.0371 14.508 95.0396 12.857 95.0371 11.206C95.0299 10.5179 94.9101 9.73857 94.3234 9.26983C94.0053 8.99504 93.5504 8.96849 93.1427 8.96964C89.0189 8.97888 84.895 8.96272 80.7699 8.98004C82.1514 9.92791 82.9316 11.4773 83.199 13.0486C83.5365 15.1049 83.3078 17.3863 81.9143 19.0684C80.7759 20.5243 78.9081 21.3463 77.0258 21.4156C77.2787 22.2099 77.7831 22.8957 78.2005 23.6162C78.8767 24.6368 79.7924 25.632 81.036 26.0038C82.1659 26.3294 83.3369 25.826 84.1837 25.1205C84.3554 25.3491 84.5248 25.5812 84.6869 25.819C84.3288 26.1539 83.9659 26.4887 83.5413 26.7461C82.4151 27.4666 80.9441 27.6802 79.6473 27.3015C78.567 27.0048 77.6803 26.2924 76.9254 25.5235C76.0036 24.5306 75.504 23.2721 74.7431 22.1776C74.1927 21.4595 73.5576 20.7922 72.8064 20.2611C72.8838 19.8039 73.0628 19.3732 73.2818 18.9634C74.4564 20.0983 76.2976 20.492 77.8992 20.1098C78.8501 19.9009 79.8844 19.506 80.3416 18.6182C81.0735 17.2223 81.0457 15.6083 81.0033 14.0866C80.9102 12.67 80.6525 11.1286 79.5904 10.0572C78.9214 9.34487 77.921 8.97195 76.9279 8.97542C75.0165 8.96849 73.1052 8.97542 71.1938 8.97542C71.1914 14.3729 71.1914 19.7704 71.1926 25.1679C71.1672 25.662 71.3281 26.2647 71.8701 26.4506C72.4604 26.5822 73.0762 26.4968 73.6774 26.506C73.6907 26.8524 73.6992 27.1999 73.7088 27.5462C71.2422 27.5774 68.7744 27.5485 66.3079 27.5636C66.3054 27.2126 66.3066 26.8616 66.3139 26.5106C66.9018 26.4956 67.503 26.5741 68.0825 26.4506C68.7587 26.2104 68.8385 25.4103 68.8567 24.8192C68.8603 20.3153 68.8555 15.8115 68.8591 11.3087C68.847 10.7453 68.7938 10.1565 68.4914 9.65891C68.2543 9.23981 67.7643 8.96503 67.2647 8.97426C65.8276 8.96387 64.3905 8.99043 62.9533 8.96272C62.9195 14.3637 62.9473 19.7658 62.94 25.1679C62.9074 25.6713 63.084 26.2786 63.6404 26.454C64.2235 26.5741 64.8296 26.4921 65.4223 26.5072C65.4465 26.857 65.455 27.208 65.4369 27.5578C62.9666 27.5509 60.4964 27.5774 58.0274 27.5439C58.0298 27.1953 58.0431 26.8466 58.0819 26.5014C58.6359 26.5037 59.196 26.5556 59.7464 26.4737C60.1843 26.3871 60.4384 25.9714 60.5218 25.5812C60.6247 25.064 60.5896 24.534 60.5956 24.011C60.5847 22.3254 60.6041 20.6398 60.5956 18.9541C59.2565 18.9726 57.9173 18.9495 56.5782 18.9657C56.5782 19.8789 56.5794 20.791 56.5806 21.7043C56.5782 22.554 56.5383 23.4222 56.2383 24.2315C55.9177 25.0963 55.06 25.7047 54.1406 25.8987C53.0616 26.1308 51.8978 26.1816 50.8478 25.8052C49.5498 25.3468 48.4441 24.2939 48.1453 22.9823C47.9857 22.2353 47.9929 21.4491 48.1901 20.709C48.5796 19.2866 49.9224 18.1944 51.4224 17.937C52.4749 17.7719 53.5467 17.9081 54.6076 17.8504C54.5229 17.1357 54.506 16.4164 54.4624 15.6995C53.5334 15.9523 52.5571 16.0874 51.5942 15.9719C50.3216 15.7999 49.1361 15.0483 48.5203 13.9665C47.7594 12.5441 47.8369 10.6507 48.9147 9.38874C49.8038 8.3485 51.2192 7.75045 52.6249 7.8024C53.6955 7.82896 54.8725 8.00445 55.6516 8.77337C56.3919 9.45686 56.5407 10.4936 56.5564 11.43C56.5818 13.5705 56.5709 15.7122 56.5746 17.8539C57.9125 17.8827 59.2516 17.8585 60.5896 17.8746C60.5993 15.7272 60.5908 13.5786 60.5944 11.4311C60.6053 10.6876 60.5448 9.84132 59.9351 9.30215C59.3424 8.79877 58.4907 8.96849 57.7661 8.94078C57.7698 8.59788 57.7734 8.25383 57.7758 7.91093C69.9527 7.88322 82.1308 7.91208 94.3077 7.90285C94.1299 6.39501 94.1782 4.81791 94.7637 3.38858C95.4992 1.62906 97.2424 0.307108 99.1997 0ZM98.2247 1.58865C97.3138 2.35411 96.8989 3.50404 96.7416 4.62279C96.6001 5.71152 96.5541 6.81989 96.7005 7.90977C99.0437 7.89707 101.386 7.90631 103.729 7.90516C103.878 6.3927 103.869 4.83176 103.422 3.36434C103.112 2.3645 102.374 1.42702 101.322 1.06795C100.29 0.713508 99.0425 0.861289 98.2247 1.58865ZM51.7212 8.52053C51.2107 8.65215 50.7752 9.00659 50.5478 9.46148C50.2756 10.003 50.1885 10.6091 50.1522 11.2037C50.1123 12.1885 50.1329 13.1999 50.4789 14.1408C50.7014 14.68 51.1672 15.1638 51.772 15.3058C52.2934 15.397 52.8838 15.3289 53.2938 14.9825C54.206 14.3198 54.4636 13.1595 54.4987 12.1239C54.5374 11.0201 54.3523 9.78822 53.4922 8.97773C53.0446 8.52861 52.343 8.3739 51.7212 8.52053ZM116.819 9.97756C117.752 11.2245 118.104 12.8085 118 14.3221C117.887 15.7145 117.153 17.0272 116.064 17.9497C114.893 19.0107 113.271 19.4621 111.694 19.5626C112.194 20.7079 112.673 21.9432 113.693 22.7699C114.519 23.3968 115.532 23.9037 116.615 23.869C118.383 23.8783 120.055 23.0851 121.393 22.0287C121.64 21.889 121.544 21.5842 121.583 21.3579C121.587 18.0871 121.583 14.8162 121.584 11.5454C121.57 10.9381 121.573 10.2974 121.266 9.74665C121.042 9.28599 120.529 8.95694 119.992 8.97311C118.582 8.97195 117.172 8.96272 115.763 8.98581C116.104 9.32755 116.537 9.5804 116.819 9.97756ZM51.5773 18.6343C50.7716 18.9322 50.3833 19.7692 50.2599 20.5347C50.1014 21.6719 50.0567 22.8542 50.3724 23.9718C50.5139 24.5167 50.8986 25.0097 51.4297 25.2602C52.1483 25.5951 53.0676 25.3896 53.5878 24.8204C54.356 24.0191 54.5362 22.8738 54.5048 21.8266C54.4806 20.8129 54.2568 19.6942 53.4184 18.9945C52.9418 18.5524 52.1966 18.3988 51.5773 18.6343Z" fill="#FF671F"/>
<path d="M133.706 7.90403C147.999 7.89826 162.293 7.90403 176.587 7.90172C176.589 8.25616 176.589 8.61176 176.588 8.96736C173.546 8.97083 170.504 8.97314 167.462 8.96621C167.438 10.4175 167.45 11.8699 167.457 13.3211C169.48 11.8583 172.59 11.9253 174.474 13.5809C176.005 14.8324 176.678 16.8183 176.583 18.7036C176.589 20.4678 175.876 22.2723 174.441 23.4245C172.967 24.7188 170.726 25.0017 168.879 24.347C169.061 24.0572 169.248 23.7686 169.435 23.4811C170.192 23.8506 171.108 23.9083 171.902 23.6081C172.756 23.2618 173.381 22.5171 173.692 21.695C174.163 20.4828 174.199 19.1701 174.169 17.892C174.141 16.8818 173.987 15.8554 173.547 14.9283C173.085 14.0104 172.162 13.2242 171.055 13.1803C170.183 13.1064 169.272 13.3985 168.673 14.0173C167.79 14.8879 167.53 16.1509 167.456 17.3182C167.445 19.9725 167.449 22.6256 167.454 25.2787C167.416 25.7914 167.708 26.3709 168.277 26.476C168.827 26.5256 169.382 26.4841 169.935 26.491C169.938 26.842 169.936 27.193 169.93 27.544C167.469 27.5359 165.01 27.5474 162.549 27.537C162.547 27.1918 162.546 26.8455 162.548 26.5002C163.123 26.4737 163.71 26.5499 164.279 26.4425C164.721 26.3375 164.96 25.9057 165.037 25.5073C165.162 24.8585 165.07 24.1946 165.11 23.54C163.954 24.3124 162.548 24.7788 161.126 24.6588C159.17 24.5791 157.43 23.3079 156.571 21.6708C155.865 20.3292 155.742 18.7775 155.93 17.3066C156.154 15.6464 157.092 14.0601 158.569 13.1306C160.516 11.8837 163.274 12.0257 165.11 13.402C165.075 12.4414 165.15 11.4773 165.057 10.5202C164.971 9.81595 164.501 8.99507 163.67 8.97198C160.344 8.96967 157.019 8.96621 153.694 8.97429C153.698 14.4087 153.69 19.842 153.698 25.2764C153.677 25.7706 153.915 26.3686 154.477 26.4818C155.046 26.551 155.621 26.4945 156.194 26.5141C156.196 26.8628 156.196 27.2126 156.185 27.5624C153.725 27.5497 151.264 27.5555 148.804 27.5601C148.797 27.2103 148.799 26.8616 148.817 26.5129C149.505 26.4379 150.316 26.7046 150.907 26.2601C151.458 25.6898 151.349 24.8435 151.366 24.1277C151.366 19.0765 151.372 14.0254 151.371 8.97313C149.889 8.9639 148.408 8.96967 146.926 8.97313C146.919 11.3873 146.927 13.8014 146.921 16.2167C146.147 16.2225 145.374 16.2214 144.602 16.2202C144.539 15.4074 144.763 14.5115 144.268 13.7853C143.741 12.8512 142.605 12.4033 141.536 12.3883C140.653 12.3317 139.715 12.513 139.036 13.0833C138.102 13.858 137.915 15.27 138.504 16.2872C138.831 16.9048 139.486 17.3355 140.2 17.4406C142.111 17.6911 144.068 17.4902 145.969 17.8308C146.978 18.0559 147.854 18.7036 148.414 19.5268C149.248 20.7945 149.281 22.4443 148.701 23.8113C147.731 25.9865 145.335 27.4666 142.877 27.5555C140.807 27.7656 138.69 27.1029 137.104 25.8283C134.603 23.9487 133.243 21.0116 132.752 18.0675C133.08 18.0525 133.406 18.0386 133.735 18.0259C133.98 19.7058 134.594 21.3475 135.635 22.7307C136.667 24.1184 138.092 25.3122 139.837 25.7798C141.295 26.1481 142.933 26.1793 144.296 25.4889C145.327 25.0155 146.105 24.1138 146.481 23.0897C146.774 22.2365 146.706 21.3037 146.465 20.4481C146.164 19.5026 145.193 18.9022 144.198 18.7902C142.47 18.5755 140.692 18.8999 138.984 18.4889C138.055 18.2637 137.113 17.8827 136.48 17.1692C135.727 16.331 135.61 15.0714 136.065 14.0751C136.502 13.126 137.487 12.5407 138.465 12.1828C140.448 11.5362 142.698 11.6286 144.593 12.5003C144.565 11.6286 144.699 10.7142 144.355 9.88407C144.144 9.35529 143.604 8.94196 142.995 8.96967C139.896 8.96621 136.797 8.97544 133.699 8.96621C133.698 8.61176 133.7 8.25847 133.706 7.90403ZM160.576 13.3489C159.611 13.716 158.957 14.5923 158.651 15.5125C158.214 16.8402 158.221 18.2557 158.303 19.6319C158.416 20.7991 158.669 22.0483 159.543 22.9316C160.478 23.9476 162.246 24.0722 163.351 23.2398C164.221 22.6141 164.645 21.59 164.838 20.5959C165.097 19.1666 165.093 17.698 164.859 16.2664C164.682 15.255 164.213 14.2228 163.293 13.634C162.51 13.1272 161.457 13.0406 160.576 13.3489Z" fill="#FF671F"/>
<path d="M48.0316 34.96C100.448 34.9566 152.865 34.96 205.283 34.9589C211.965 34.9681 218.649 34.9393 225.33 34.9727L225.482 35.0005C220.369 38.4583 215.274 41.9427 210.198 45.4502C202.651 50.6838 195.081 55.8861 187.501 61.0735C183.697 63.6435 179.884 66.2008 176.045 68.7246C174.254 69.8584 172.473 71.0083 170.684 72.1467C162.642 77.1897 154.371 81.9626 145.569 85.7091C140.849 87.703 135.91 89.3505 130.767 89.9659C127.864 90.2846 124.866 90.3989 122.028 89.6172C119.893 89.0365 117.921 87.9743 116.222 86.6212C114.621 85.3789 113.318 83.8445 111.92 82.4094C108.674 78.8962 105.43 75.3771 101.988 72.0359C96.0195 66.3324 89.2802 61.3656 81.9941 57.2912C81.6627 57.1042 81.3276 56.8686 80.9248 56.8744C75.8682 56.7185 70.8116 56.9598 65.7671 57.2693C66.5631 57.5602 67.4051 57.7149 68.2107 57.9805C72.5681 59.329 76.646 61.376 80.5582 63.625C84.0954 65.6882 87.4983 67.9557 90.7766 70.3745C93.3702 72.2206 95.78 74.2884 98.1498 76.3862C100.462 78.4955 102.698 80.6868 104.717 83.0571C107.442 86.2321 110.151 89.5456 113.801 91.8097C116.035 93.2575 118.596 94.2158 121.233 94.7446C123.652 95.2687 126.15 95.2687 128.615 95.159C131.604 94.9489 134.56 94.3751 137.424 93.5369C141.69 92.2877 145.795 90.587 149.79 88.6982C158.064 84.6966 165.874 79.8821 173.45 74.7917C185.166 67.0055 196.551 58.7794 207.914 50.5337C215.139 45.3405 222.283 40.0412 229.599 34.9635C234.284 34.952 238.969 34.96 243.656 34.9612L243.525 35.0709C241.211 36.5175 238.931 38.015 236.657 39.5216C221.349 49.5812 206.47 60.2203 191.321 70.4945C187.656 73.0184 183.926 75.4545 180.207 77.9032C172.566 82.8874 164.766 87.6695 156.609 91.8524C152.249 94.1096 147.755 96.145 143.105 97.7983C137.983 99.6052 132.618 100.942 127.14 101.146C122.397 101.343 117.59 100.494 113.298 98.5418C109.084 96.5526 105.743 93.2563 102.898 89.75C101.508 88.1059 100.279 86.3429 98.8127 84.7578C96.5977 82.3044 94.2243 79.9791 91.7093 77.804C85.4212 72.3118 78.2428 67.8229 70.7415 63.9922C66.1397 61.6692 61.3844 59.6026 56.4536 57.9978C55.9504 57.8454 55.4205 57.9909 54.9076 57.9966C52.8632 58.1571 50.8091 58.2552 48.7756 58.5208C48.5155 58.5531 48.2542 58.5658 47.9941 58.582C48.028 51.8706 47.999 45.1593 48.0087 38.4491C48.022 37.2864 47.9808 36.1215 48.0316 34.96Z" fill="#CB0000"/>
<path d="M235.451 43.7992C239.41 41.0317 243.377 38.2701 247.419 35.6123C247.42 38.3682 247.421 41.1229 247.419 43.8788C247.324 43.9539 247.226 44.0243 247.132 44.0924C231.556 54.1081 216.624 64.9919 201.4 75.481C197.627 78.1341 193.777 80.6845 189.955 83.273C182.745 88.1232 175.441 92.8534 167.889 97.206C163.748 99.5809 159.553 101.873 155.237 103.943C150.64 106.134 145.946 108.174 141.041 109.658C135.607 111.31 129.957 112.491 124.233 112.527C119.416 112.633 114.58 111.831 110.089 110.163C105.747 108.51 101.755 106.035 98.3816 102.95C96.7654 101.478 95.4033 99.7806 94.0146 98.1169C92.7407 96.5629 91.5661 94.9315 90.187 93.4572C85.5696 88.2237 80.0993 83.7036 74.1681 79.874C66.4454 74.8771 57.8335 71.2773 49.0389 68.3805C48.6845 68.272 48.3191 68.1796 48.001 67.9903C48.0143 66.3335 48.0082 64.6768 48.0022 63.02C51.7765 64.0083 55.4709 65.2679 59.1133 66.6326C64.0538 68.5052 68.8684 70.6758 73.5415 73.0945C82.4667 77.8004 90.533 84.0373 97.0122 91.5661C98.3622 93.1928 99.7183 94.8161 101.119 96.4036C103.914 99.3835 107.26 101.917 111.022 103.693C113.352 104.732 115.798 105.554 118.322 106.044C121.418 106.658 124.598 106.837 127.753 106.654C130.771 106.491 133.751 105.945 136.68 105.247C141.596 104.047 146.334 102.256 150.902 100.159C159.561 96.1865 167.687 91.2532 175.621 86.1039C182.969 81.1382 190.266 76.101 197.467 70.9413L197.615 71.1745C197.599 71.0891 197.581 71.0036 197.565 70.9205C199.102 69.7567 200.707 68.6773 202.258 67.5331C209.811 62.1206 217.342 56.6816 224.904 51.2818C228.424 48.7937 231.909 46.2595 235.451 43.7992Z" fill="#CB0000"/>
<g filter="url(#filter0_d_89_669)">
<path d="M225.796 64.0291C232.929 58.8821 240.143 53.8356 247.425 48.8838C247.416 80.4132 247.422 111.944 247.423 143.474C180.956 143.478 114.49 143.473 48.0222 143.477C47.9847 121.249 48.0331 99.0221 47.998 76.796C48.713 76.893 49.3771 77.1793 50.0679 77.3687C58.2104 80.0264 66.0541 83.5963 73.1636 88.241C75.756 89.959 78.2383 91.8328 80.5585 93.8752C82.4759 95.4661 84.2432 97.2152 85.9247 99.0313C87.0328 100.141 87.945 101.407 88.9732 102.582C90.1091 103.882 91.1833 105.232 92.4015 106.467C95.508 109.645 99.119 112.392 103.12 114.479C107.304 116.658 111.9 118.1 116.611 118.772C119.648 119.25 122.74 119.303 125.809 119.158C128.787 119.005 131.752 118.629 134.671 118.037C139.291 117.102 143.762 115.601 148.129 113.903C155.05 111.066 161.714 107.675 168.102 103.873C172.145 101.503 176.078 98.9702 179.999 96.4221C183.761 93.9848 187.442 91.4356 191.121 88.8864C194.596 86.4364 198.092 84.0131 201.541 81.5273C209.655 75.7315 217.706 69.8572 225.796 64.0291Z" fill="#CB0000"/>
</g>
<path d="M187.319 150.856C188.521 150.823 189.721 150.731 190.925 150.717C190.917 154.705 190.921 158.692 190.921 162.681C190.921 163.098 190.954 163.603 191.351 163.866C191.737 164.107 192.228 164.008 192.665 164.033C192.668 164.264 192.671 164.495 192.674 164.729C191.629 164.736 190.585 164.731 189.541 164.735C189.436 164.149 189.387 163.556 189.282 162.971C188.817 163.738 188.156 164.459 187.243 164.732C186.369 164.978 185.374 164.892 184.595 164.428C183.66 163.879 182.992 162.953 182.726 161.941C182.447 160.941 182.44 159.877 182.678 158.869C182.948 157.771 183.662 156.762 184.674 156.171C185.688 155.579 187.06 155.494 188.077 156.125C188.599 156.421 188.967 156.896 189.3 157.369C189.277 155.711 189.303 154.052 189.288 152.395C189.298 152.068 189.04 151.778 188.726 151.679C188.275 151.525 187.788 151.56 187.32 151.555C187.318 151.321 187.318 151.087 187.319 150.856ZM186.067 156.569C185.418 156.78 184.924 157.322 184.733 157.944C184.413 158.948 184.402 160.015 184.479 161.055C184.567 161.895 184.674 162.836 185.356 163.451C185.923 164.066 186.946 164.182 187.682 163.787C188.346 163.418 188.823 162.776 189.048 162.082C189.312 161.228 189.331 160.323 189.27 159.441C189.171 158.465 188.786 157.442 187.937 156.838C187.413 156.443 186.689 156.396 186.067 156.569Z" fill="#046A38"/>
<path d="M195.425 150.72C196.186 150.553 196.957 151.339 196.694 152.051C196.542 152.588 195.895 152.924 195.339 152.767C194.871 152.63 194.483 152.183 194.54 151.703C194.549 151.236 194.95 150.808 195.425 150.72Z" fill="#B02925"/>
<path d="M164.207 151.55C164.206 151.315 164.207 151.082 164.21 150.85C166.441 150.857 168.672 150.851 170.902 150.853C170.9 151.084 170.902 151.317 170.905 151.552C170.254 151.563 169.588 151.497 168.954 151.661C168.587 151.779 168.62 152.218 168.588 152.516C168.586 156.015 168.582 159.516 168.59 163.015C168.617 163.345 168.574 163.831 168.998 163.947C169.619 164.103 170.275 163.988 170.91 164.036C170.905 164.265 170.902 164.497 170.905 164.731C168.671 164.721 166.436 164.734 164.203 164.724C164.206 164.488 164.21 164.256 164.218 164.025C164.844 164.01 165.482 164.073 166.101 163.956C166.548 163.877 166.502 163.354 166.531 163.023C166.537 159.52 166.538 156.017 166.529 152.514C166.512 152.226 166.544 151.807 166.196 151.687C165.557 151.471 164.868 151.576 164.207 151.55Z" fill="#046A38"/>
<path d="M212.526 151.56C212.514 151.318 212.527 151.076 212.573 150.841C215.064 150.879 217.556 150.837 220.048 150.86C221.074 150.915 222.143 151.078 223.014 151.636C223.867 152.169 224.487 153.04 224.629 154.01C224.797 155.08 224.585 156.302 223.722 157.067C222.686 157.948 221.306 158.424 219.927 158.461C218.923 158.489 217.919 158.464 216.916 158.477C216.926 160.111 216.889 161.745 216.934 163.378C216.914 163.743 217.276 163.989 217.628 164.015C218.248 164.045 218.871 164.023 219.493 164.027C219.495 164.26 219.497 164.493 219.503 164.729C217.178 164.733 214.855 164.728 212.53 164.731C212.513 164.493 212.522 164.257 212.56 164.025C213.143 164.019 213.73 164.058 214.313 164.001C214.625 163.968 214.835 163.663 214.815 163.376C214.816 159.716 214.818 156.055 214.813 152.395C214.838 152.099 214.717 151.759 214.395 151.665C213.788 151.498 213.146 151.566 212.526 151.56ZM217.045 151.833C216.855 152.1 216.935 152.441 216.916 152.746C216.915 154.427 216.911 156.109 216.917 157.791C217.884 157.775 218.855 157.83 219.82 157.733C220.637 157.643 221.513 157.335 221.95 156.626C222.452 155.768 222.465 154.74 222.372 153.787C222.293 152.978 221.819 152.173 221.026 151.827C220.107 151.441 219.08 151.485 218.099 151.493C217.732 151.517 217.282 151.521 217.045 151.833Z" fill="#046A38"/>
<path d="M243.1 152.305C243.305 152.279 243.509 152.256 243.722 152.238C243.86 153.432 243.749 154.646 243.781 155.849C244.773 155.858 245.765 155.842 246.758 155.858C246.752 156.146 246.749 156.435 246.743 156.726C245.758 156.716 244.774 156.726 243.791 156.721C243.776 158.631 243.782 160.542 243.789 162.451C243.778 162.973 244.023 163.556 244.559 163.768C245.106 164.013 245.788 163.795 246.144 163.347C246.617 162.783 246.706 162.031 246.751 161.334C246.976 161.334 247.202 161.335 247.432 161.342C247.333 162.25 247.236 163.258 246.55 163.962C245.633 164.974 243.828 165.065 242.786 164.187C242.257 163.718 242.108 162.997 242.135 162.337C242.135 160.464 242.14 158.593 242.132 156.72C241.6 156.723 241.069 156.721 240.539 156.723C240.536 156.503 240.536 156.287 240.537 156.071C241.163 155.939 241.794 155.681 242.197 155.182C242.861 154.368 243.054 153.311 243.1 152.305Z" fill="#046A38"/>
<path d="M227.105 155.684C228.249 155.456 229.508 155.641 230.471 156.298C231.521 156.982 232.196 158.122 232.363 159.318C232.6 160.888 232.276 162.675 230.996 163.785C230.047 164.618 228.703 165.041 227.421 164.869C226.387 164.76 225.446 164.197 224.804 163.43C224.084 162.615 223.77 161.538 223.731 160.488C223.685 159.491 223.887 158.468 224.419 157.6C225.01 156.665 225.973 155.916 227.105 155.684ZM227.721 156.284C226.857 156.393 226.202 157.091 225.902 157.834C225.518 158.865 225.509 159.983 225.57 161.065C225.648 162.001 225.858 163.018 226.611 163.687C227.425 164.488 228.941 164.401 229.681 163.547C230.471 162.719 230.551 161.54 230.618 160.478C230.624 159.333 230.613 158.067 229.867 157.108C229.391 156.465 228.525 156.16 227.721 156.284Z" fill="#046A38"/>
<path d="M233.969 156.685C234.759 155.736 236.198 155.494 237.374 155.817C237.832 155.92 238.223 156.178 238.638 156.382C238.969 156.14 239.188 155.591 239.696 155.772C239.765 156.808 239.858 157.843 239.937 158.88C239.713 158.879 239.494 158.879 239.276 158.88C239.083 158.302 238.828 157.73 238.413 157.264C237.635 156.375 236.189 156.122 235.115 156.633C234.411 156.965 234.021 157.904 234.527 158.541C235.099 159.191 236.06 159.268 236.878 159.423C237.837 159.617 238.91 159.682 239.684 160.326C240.203 160.777 240.572 161.417 240.61 162.094C240.636 162.908 240.103 163.629 239.476 164.133C238.741 164.76 237.703 164.955 236.743 164.886C235.944 164.829 235.206 164.485 234.561 164.05C234.347 164.276 234.15 164.517 233.931 164.737C233.782 164.914 233.516 164.799 233.316 164.826C233.276 163.661 233.171 162.5 233.135 161.336C233.34 161.333 233.55 161.332 233.761 161.333C234.084 162.038 234.364 162.788 234.936 163.353C235.529 163.992 236.464 164.238 237.335 164.198C237.939 164.167 238.589 164.003 238.995 163.544C239.433 163.07 239.493 162.254 238.999 161.796C238.725 161.502 238.3 161.426 237.923 161.33C236.963 161.124 235.99 160.972 235.052 160.686C234.386 160.483 233.772 160.039 233.501 159.41C233.068 158.519 233.314 157.42 233.969 156.685Z" fill="#046A38"/>
<path d="M171.496 155.937C172.518 155.896 173.538 155.807 174.56 155.771C174.694 156.402 174.749 157.041 174.847 157.678C175.382 156.843 176.195 156.124 177.218 155.901C178.173 155.688 179.299 155.73 180.073 156.37C180.792 156.991 181.078 157.954 181.092 158.856C181.121 160.322 181.084 161.789 181.111 163.255C181.107 163.509 181.197 163.819 181.472 163.924C181.866 164.069 182.301 164.006 182.717 164.028C182.721 164.259 182.724 164.489 182.73 164.723C181.11 164.728 179.49 164.732 177.87 164.722C177.873 164.487 177.877 164.255 177.885 164.024C178.363 163.988 178.946 164.114 179.321 163.749C179.52 163.559 179.469 163.262 179.49 163.02C179.482 161.746 179.498 160.473 179.479 159.2C179.465 158.485 179.3 157.694 178.696 157.212C177.988 156.669 176.922 156.719 176.173 157.164C175.329 157.682 174.882 158.652 174.85 159.59C174.815 160.731 174.842 161.874 174.831 163.016C174.829 163.338 174.852 163.741 175.188 163.919C175.59 164.059 176.033 164.014 176.456 164.028C176.455 164.259 176.457 164.492 176.461 164.726C174.835 164.725 173.209 164.73 171.583 164.724C171.587 164.489 171.593 164.259 171.602 164.029C172.141 164.006 173.029 164.143 173.189 163.471C173.224 161.628 173.192 159.785 173.203 157.941C173.209 157.567 173.204 157.138 172.896 156.864C172.538 156.488 171.963 156.576 171.49 156.536C171.491 156.335 171.491 156.134 171.496 155.937Z" fill="#046A38"/>
<path d="M202.068 155.796C203.106 155.615 204.225 155.62 205.209 156.024C206.018 156.342 206.635 157.106 206.659 157.954C206.682 159.605 206.657 161.257 206.669 162.908C206.675 163.304 206.754 163.785 207.152 164.002C207.541 164.137 207.938 163.955 208.292 163.806C208.382 163.962 208.481 164.117 208.555 164.285C207.957 165.046 206.675 165.237 205.878 164.651C205.498 164.341 205.289 163.894 205.096 163.466C204.483 163.948 203.935 164.548 203.158 164.793C202.171 165.081 201.072 165.081 200.109 164.715C199.238 164.371 198.682 163.435 198.886 162.546C199.041 161.661 199.809 161.026 200.595 160.62C201.957 159.926 203.495 159.63 205.014 159.445C204.958 158.678 205.222 157.786 204.66 157.139C203.837 156.156 202.173 156.172 201.176 156.896C200.784 157.149 201.149 157.546 201.312 157.821C201.569 158.155 201.562 158.65 201.27 158.964C200.777 159.497 199.72 159.331 199.439 158.67C199.224 158.205 199.322 157.658 199.613 157.246C200.166 156.454 201.097 155.955 202.068 155.796ZM201.674 161.009C200.807 161.494 200.498 162.605 200.851 163.476C201.051 163.961 201.588 164.283 202.135 164.256C203.29 164.293 204.352 163.523 204.785 162.526C205.117 161.743 205.001 160.877 205.003 160.055C203.867 160.26 202.683 160.436 201.674 161.009Z" fill="#046A38"/>
<path d="M193.094 155.936C194.309 155.916 195.524 155.887 196.739 155.836C196.757 158.409 196.712 160.986 196.761 163.56C196.969 164.265 197.933 163.962 198.5 164.029C198.499 164.259 198.5 164.492 198.502 164.726C196.761 164.733 195.02 164.727 193.279 164.732C193.276 164.498 193.273 164.266 193.273 164.036C193.802 163.971 194.438 164.173 194.887 163.827C195.16 163.509 195.064 163.055 195.089 162.675C195.077 161.018 195.089 159.361 195.084 157.704C195.085 157.39 194.98 157.048 194.691 156.872C194.225 156.561 193.622 156.66 193.089 156.639C193.088 156.403 193.089 156.168 193.094 155.936Z" fill="#046A38"/>
<path d="M304.174 3.97666C304.43 4.00321 304.751 3.89238 304.977 4.04247C304.787 4.10712 304.578 4.10828 304.388 4.12098C304.399 4.16831 304.422 4.26299 304.434 4.31032C304.192 4.35419 303.882 4.29531 303.753 4.54238C303.561 4.58279 303.376 4.62205 303.192 4.65899L303.209 4.77329C303.01 4.80793 302.768 4.80331 302.665 5.00305C302.485 5.05154 302.251 5.02383 302.192 5.23049C301.978 5.26859 301.776 5.33094 301.619 5.47179C301.395 5.5249 301.172 5.56993 300.953 5.61034C300.932 5.85856 300.664 5.80661 300.485 5.8424C300.413 6.01327 300.204 6.01674 300.059 6.07677L300.069 6.17491C299.874 6.20839 299.684 6.24649 299.498 6.28805C299.379 6.47278 299.142 6.47278 298.951 6.51896L298.989 6.6298C298.787 6.66674 298.565 6.67713 298.43 6.83877C297.908 7.06852 297.354 7.25902 296.878 7.55459C296.741 7.60077 296.612 7.6458 296.486 7.69313C296.298 7.8132 296.083 7.87786 295.903 7.99909C295.73 8.06951 295.535 8.10068 295.407 8.23577C295.225 8.27733 295.025 8.29118 294.934 8.46667C294.587 8.57751 294.241 8.70567 293.952 8.92387C293.788 8.99315 293.574 9.00123 293.5 9.17326C293.314 9.21713 293.058 9.17441 293.002 9.39955C292.841 9.42379 292.662 9.42495 292.629 9.61314C292.433 9.65701 292.245 9.69973 292.057 9.74014L292.089 9.86598C291.9 9.91678 291.605 9.84404 291.562 10.083C291.028 10.1985 290.608 10.5622 290.087 10.7053C290.013 10.8774 289.788 10.8531 289.645 10.9166L289.675 11.0113C289.155 11.1464 288.745 11.5158 288.214 11.6255L288.226 11.7086C287.916 11.7998 287.66 12.0019 287.347 12.0723L287.377 12.1704C287.22 12.2085 287.067 12.2501 286.92 12.2951C286.811 12.4475 286.624 12.4926 286.459 12.5514C286.151 12.7593 285.811 12.9336 285.442 13.0086L285.45 13.0825C285.308 13.1206 285.203 13.1968 285.136 13.3111C284.955 13.3596 284.764 13.3931 284.639 13.534C284.49 13.5859 284.346 13.6379 284.204 13.6875L284.228 13.7903C284.038 13.8318 283.852 13.8769 283.671 13.9254C283.604 14.0754 283.445 14.1193 283.306 14.1701C283.168 14.289 282.999 14.3525 282.832 14.4103C282.446 14.6908 281.988 14.8744 281.559 15.0891L281.569 15.178C281.415 15.2184 281.267 15.2612 281.123 15.3039C281 15.4574 280.807 15.5025 280.628 15.5498C280.599 15.7357 280.415 15.7357 280.266 15.7657C280.137 15.8973 279.959 15.9585 279.79 16.0116C279.646 16.1167 279.504 16.2206 279.364 16.3233C279.219 16.3822 279.079 16.4457 278.957 16.5323C278.707 16.6685 278.447 16.7852 278.206 16.9306C278.084 17.0634 277.899 17.1038 277.739 17.165C277.617 17.2735 277.464 17.3324 277.316 17.3855L277.318 17.4675C277.166 17.5333 276.952 17.5287 276.901 17.7134C276.821 17.7226 276.664 17.7423 276.584 17.7515C276.584 17.7954 276.585 17.8831 276.585 17.9282C276.388 17.9801 276.085 17.927 276.081 18.1902C276.007 18.196 275.86 18.2087 275.787 18.2145C275.571 18.5354 275.092 18.5666 274.784 18.7894C274.741 18.8368 274.658 18.9291 274.616 18.9753C274.55 18.9799 274.42 18.988 274.354 18.9926C274.304 19.1854 274.104 19.197 273.945 19.242C273.901 19.2882 273.812 19.3806 273.768 19.4267C273.702 19.4348 273.573 19.451 273.509 19.4591C273.343 19.7108 273.027 19.8008 272.772 19.9371C272.638 20.0629 272.459 20.1183 272.289 20.1703C272.24 20.34 272.053 20.3492 271.913 20.3954C271.681 20.6102 271.406 20.7729 271.104 20.8757C271.003 20.96 270.897 21.0327 270.786 21.0951L270.783 21.1632C270.487 21.2359 270.246 21.4172 269.99 21.5603C269.832 21.6804 269.651 21.752 269.459 21.7809C269.461 21.8247 269.466 21.9125 269.467 21.9564C269.388 21.9667 269.231 21.9887 269.153 21.9991C268.851 22.3085 268.422 22.5071 268.036 22.7149C267.771 22.9042 267.417 22.9908 267.23 23.2633C267.152 23.2702 266.996 23.2841 266.917 23.291C266.915 23.3372 266.911 23.4284 266.91 23.4746C266.704 23.4942 266.519 23.5565 266.397 23.7182C266.301 23.7863 266.209 23.8533 266.119 23.9214C265.946 23.971 265.762 24.0034 265.646 24.1431C265.526 24.2273 265.41 24.3105 265.297 24.3936C265.169 24.4467 265.041 24.501 264.922 24.5575C264.684 24.7977 264.378 24.9836 264.028 25.0159C264.027 25.0609 264.026 25.151 264.025 25.196C263.959 25.1972 263.829 25.2006 263.763 25.2018L263.767 25.3138C263.621 25.383 263.408 25.3946 263.364 25.577C263.309 25.5782 263.198 25.5816 263.143 25.5839C263.148 25.6313 263.155 25.7282 263.158 25.7756C262.985 25.8102 262.814 25.8472 262.649 25.8876C262.512 26.2005 262.09 26.1958 261.896 26.4591C261.725 26.5226 261.554 26.5895 261.441 26.7269C261.291 26.7743 261.143 26.8204 261 26.8643C261.002 26.9105 261.004 27.0029 261.005 27.0479C260.924 27.0537 260.761 27.0664 260.68 27.0721C260.425 27.4427 259.879 27.5016 259.597 27.8595C259.54 27.8768 259.429 27.9103 259.372 27.9276C259.193 28.0419 259.013 28.1562 258.868 28.3052C258.546 28.3883 258.257 28.5488 258.035 28.7843C257.879 28.819 257.712 28.8409 257.687 29.0152C257.522 29.0522 257.348 29.0787 257.302 29.2588C257.253 29.2635 257.151 29.2738 257.1 29.2785C257.104 29.3246 257.11 29.4182 257.114 29.4643C256.924 29.5036 256.736 29.5567 256.561 29.6202C256.451 29.7172 256.33 29.7968 256.21 29.8754C256.095 30.022 255.906 30.0624 255.741 30.1178C255.603 30.3245 255.391 30.4538 255.161 30.5438L255.199 30.6431C255.034 30.6824 254.826 30.6662 254.774 30.8521C254.475 30.9352 254.293 31.2158 253.97 31.2354L253.974 31.3255C253.824 31.352 253.724 31.4317 253.676 31.5633C253.622 31.5656 253.515 31.5714 253.46 31.5748C253.466 31.6291 253.478 31.7388 253.484 31.7942C253.343 31.8023 253.204 31.8127 253.068 31.8231C253.026 31.8704 252.941 31.9662 252.9 32.0147C252.508 32.2225 252.178 32.5343 251.743 32.659C251.614 32.786 251.492 32.9153 251.375 33.048C251.308 33.0527 251.174 33.0642 251.107 33.0688C251.078 33.2385 250.913 33.2801 250.774 33.3332C250.676 33.4475 250.535 33.5099 250.407 33.5745C250.331 33.66 250.249 33.7362 250.158 33.802C250.027 33.8724 249.904 33.9463 249.783 34.0213C249.632 34.1218 249.483 34.2211 249.338 34.3238C249.137 34.4751 248.93 34.6194 248.696 34.7175C248.455 34.8838 248.226 35.0639 247.997 35.2428C247.778 35.3306 247.594 35.4668 247.419 35.6123C243.377 38.27 239.411 41.0317 235.451 43.7991C231.909 46.2595 228.424 48.7937 224.904 51.2817C217.342 56.6815 209.812 62.1206 202.258 67.5331C200.707 68.6772 199.102 69.7567 197.566 70.9205C197.582 71.0036 197.6 71.0891 197.615 71.1745L197.468 70.9413C190.266 76.1009 182.97 81.1382 175.622 86.1039C167.687 91.2532 159.562 96.1865 150.903 100.159C146.335 102.256 141.596 104.047 136.68 105.247C133.751 105.945 130.772 106.491 127.754 106.654C124.599 106.837 121.419 106.658 118.323 106.044C115.798 105.554 113.352 104.732 111.022 103.693C107.26 101.917 103.914 99.3835 101.12 96.4036C99.7188 94.8161 98.3627 93.1928 97.0127 91.566C90.5335 84.0373 82.4672 77.8004 73.542 73.0945C68.8689 70.6757 64.0543 68.5052 59.1138 66.6325C55.4714 65.2679 51.777 64.0083 48.0027 63.02C47.9543 63.0107 47.8575 62.9911 47.8091 62.9819L47.8382 62.8722C47.4365 62.8468 47.0398 62.781 46.643 62.7302L46.6575 62.6113C46.3575 62.5535 46.0248 62.5755 45.7647 62.4035C45.3982 62.3215 45.0244 62.2891 44.6518 62.2545C44.5369 62.0028 44.2296 62.0963 44.0046 62.0617C43.7046 61.7638 43.1687 61.8908 42.7695 61.8077L42.7889 61.6865C42.5336 61.6518 42.2772 61.6207 42.0195 61.6103C42.0171 61.5756 42.0122 61.5052 42.0098 61.4706C41.7146 61.4175 41.29 61.5779 41.1122 61.2755C40.5146 61.2454 39.9231 61.1473 39.3267 61.1092C38.9892 60.7755 38.3952 61.0619 38.0142 60.7836C37.5932 60.7282 37.1698 60.6993 36.7488 60.6462C36.2988 60.4373 35.7774 60.4915 35.3008 60.3761C35.7218 60.2918 36.1464 60.2214 36.577 60.1937L36.5843 60.0828C36.9992 60.0586 37.4129 60.0135 37.8279 59.9916L37.7988 59.8669C38.4448 59.8761 39.0799 59.7411 39.7247 59.7365V59.6175C40.217 59.6198 40.7009 59.524 41.192 59.509L41.1715 59.3843C41.7388 59.3947 42.2989 59.2839 42.8663 59.2723L42.8723 59.1546C43.401 59.1442 43.9248 59.0564 44.4546 59.0507L44.4498 58.9329C44.9446 58.9514 45.4296 58.8336 45.9244 58.8428L45.9026 58.7112C46.6502 58.7447 47.3894 58.6015 48.1358 58.6038C48.3523 58.6027 48.5652 58.5611 48.7757 58.5173C50.8092 58.2517 52.8633 58.1536 54.9077 57.9931C55.4206 57.9873 55.9505 57.8418 56.4537 57.9942C61.3845 59.5991 66.1398 61.6657 70.7415 63.9886C78.2429 67.8194 85.4213 72.3083 91.7093 77.8004C94.2243 79.9756 96.5978 82.3008 98.8127 84.7542C100.279 86.3394 101.508 88.1024 102.898 89.7465C105.743 93.2528 109.084 96.549 113.298 98.5383C117.59 100.491 122.397 101.339 127.14 101.143C132.618 100.939 137.983 99.6017 143.105 97.7948C147.755 96.1415 152.249 94.106 156.609 91.8489C164.766 87.666 172.566 82.8839 180.207 77.8997C183.926 75.4509 187.656 73.0148 191.321 70.491C206.47 60.2167 221.349 49.5776 236.657 39.5181C238.93 38.0114 241.211 36.514 243.525 35.0673C243.61 35.02 243.681 34.9565 243.74 34.878C243.884 34.8203 244.017 34.736 244.131 34.6275C244.189 34.6101 244.304 34.5767 244.362 34.5605C244.654 34.2488 245.081 34.0744 245.448 33.8505C245.563 33.7685 245.681 33.6877 245.805 33.6092C246.029 33.4302 246.276 33.2813 246.542 33.1612C246.734 33.018 246.953 32.9083 247.154 32.7721C247.209 32.7548 247.316 32.7213 247.371 32.7051C247.513 32.4638 247.798 32.3657 247.985 32.1637C248.042 32.1498 248.157 32.1209 248.214 32.1059C248.387 31.9812 248.569 31.8623 248.712 31.6995C248.779 31.6915 248.912 31.6741 248.978 31.6661C249.021 31.6083 249.104 31.4917 249.145 31.4328C249.334 31.3728 249.599 31.3728 249.665 31.1454C249.743 31.135 249.9 31.1153 249.979 31.1049C249.976 31.0565 249.974 30.9606 249.973 30.9133C250.048 30.9006 250.199 30.8752 250.275 30.8625C250.357 30.739 250.492 30.672 250.625 30.6004C250.746 30.5173 250.878 30.4572 251.02 30.3995C251.064 30.231 251.23 30.2125 251.386 30.179C251.443 30.0266 251.596 29.985 251.744 29.9342C251.855 29.8488 251.97 29.7634 252.086 29.6756C252.202 29.5913 252.333 29.5336 252.471 29.4736C252.551 29.3131 252.737 29.2958 252.899 29.2473C252.936 29.1953 253.01 29.0937 253.047 29.0418C253.126 29.0395 253.285 29.0349 253.365 29.0325C253.363 28.9817 253.36 28.879 253.357 28.8282C253.44 28.8224 253.603 28.8086 253.685 28.8016C253.703 28.6054 253.881 28.5846 254.049 28.5546C254.08 28.3756 254.249 28.3594 254.409 28.3294C254.452 28.1609 254.647 28.1528 254.785 28.0893C254.98 27.7175 255.514 27.7949 255.712 27.4497C255.79 27.4393 255.946 27.4185 256.024 27.4081C256.022 27.3619 256.02 27.2696 256.018 27.2234C256.099 27.213 256.26 27.191 256.341 27.1807C256.491 26.9209 256.815 26.8424 257.065 26.6946C257.181 26.6126 257.305 26.5353 257.433 26.4602C257.864 26.272 258.197 25.913 258.663 25.7952C258.713 25.6636 258.812 25.5862 258.961 25.562L258.95 25.4766C259.135 25.4373 259.321 25.3807 259.482 25.2722C259.563 25.1879 259.646 25.1036 259.729 25.0182C259.838 24.9928 259.953 24.9674 260.071 24.942C260.316 24.6834 260.705 24.591 260.922 24.3093C261.005 24.3035 261.171 24.292 261.253 24.2862C261.247 24.2354 261.235 24.1338 261.229 24.083C261.462 24.0334 261.698 23.9791 261.939 23.9283C261.939 23.8937 261.94 23.8232 261.942 23.7886C262.202 23.5542 262.681 23.605 262.842 23.2818C262.908 23.2725 263.04 23.2552 263.106 23.246C263.158 22.9966 263.547 23.1017 263.569 22.8269C263.64 22.8188 263.783 22.8026 263.854 22.7957C263.867 22.5544 264.131 22.5902 264.317 22.5429C264.413 22.4366 264.513 22.3339 264.62 22.2323C264.914 22.1515 265.17 21.9864 265.41 21.8051C265.584 21.4841 266.093 21.6146 266.236 21.3121C266.378 21.2717 266.559 21.2717 266.607 21.1008C266.923 21.0096 267.25 20.8872 267.465 20.6344C267.699 20.5824 267.921 20.4866 268.082 20.3065C268.146 20.2973 268.274 20.2788 268.338 20.2684C268.436 20.161 268.55 20.0629 268.698 20.0109C268.878 19.8008 269.298 19.8978 269.369 19.5965C269.454 19.5895 269.623 19.5745 269.708 19.5676L269.669 19.4302C269.745 19.4106 269.898 19.3713 269.974 19.3505L269.94 19.2351C270.135 19.2051 270.339 19.167 270.474 19.01C270.611 18.9626 270.775 18.9326 270.85 18.7871C271.238 18.6497 271.641 18.4939 271.947 18.2156C272.022 18.2087 272.172 18.1949 272.248 18.1879C272.247 18.1417 272.243 18.0482 272.242 18.002C272.321 17.9893 272.478 17.9651 272.557 17.9536C272.714 17.8462 272.883 17.7504 273.033 17.6257C273.188 17.5587 273.426 17.576 273.493 17.3878C273.671 17.337 273.88 17.3128 273.987 17.1408C274.066 17.1281 274.225 17.1015 274.305 17.0876C274.302 17.0472 274.296 16.9653 274.294 16.9249C274.636 16.8775 274.999 16.7424 275.211 16.4653C275.291 16.4584 275.452 16.4446 275.533 16.4376C275.531 16.3903 275.528 16.2956 275.525 16.2483C275.943 16.2714 276.231 15.9689 276.608 15.8615L276.587 15.7576C276.756 15.7218 276.926 15.6826 277.1 15.6445L277.069 15.5313C277.26 15.499 277.46 15.4574 277.607 15.3189C277.893 15.163 278.213 15.0591 278.47 14.8536C278.626 14.7982 278.788 14.7462 278.955 14.692C279.064 14.5661 279.227 14.5176 279.389 14.4738L279.372 14.3733C279.538 14.3364 279.706 14.2971 279.879 14.259L279.867 14.1597C280.054 14.1147 280.254 14.0697 280.386 13.9161C280.553 13.8676 280.722 13.8214 280.898 13.7741C280.947 13.5836 281.142 13.5825 281.314 13.5524L281.292 13.437C281.424 13.4047 281.558 13.3735 281.697 13.3412L281.679 13.2361C281.898 13.1911 282.115 13.1356 282.336 13.0745C282.413 12.907 282.596 12.892 282.765 12.8562L282.752 12.7454C282.918 12.7119 283.086 12.675 283.259 12.6403L283.237 12.5318C283.571 12.4487 283.928 12.3575 284.16 12.0908C284.499 12.0331 284.81 11.8864 285.098 11.7052L285.077 11.622C285.277 11.5816 285.481 11.5389 285.687 11.4962L285.677 11.3923C286.044 11.3207 286.356 11.1117 286.709 10.9951C286.852 10.8878 287.025 10.8208 287.204 10.7711C287.517 10.5703 287.878 10.4513 288.228 10.3197L288.203 10.2181C288.388 10.1685 288.687 10.2447 288.744 10.0057C288.955 9.95604 289.228 9.97797 289.353 9.76438C289.522 9.72166 289.692 9.68125 289.868 9.63854C290.015 9.47805 290.241 9.45035 290.448 9.38685C290.578 9.24137 290.775 9.20443 290.961 9.14901C291.127 9.01162 291.335 8.95043 291.558 8.93657C291.802 8.64909 292.233 8.59714 292.585 8.48515L292.565 8.38008C292.767 8.33968 292.973 8.29811 293.182 8.25655L293.16 8.13417C293.365 8.09838 293.572 8.06028 293.783 8.02448L293.765 7.90903C293.96 7.87324 294.186 7.86631 294.319 7.69313C294.714 7.61924 295.063 7.41604 295.453 7.31444C295.615 7.17705 295.822 7.1251 296.032 7.0743C296.18 6.97501 296.346 6.90689 296.52 6.84801C296.75 6.70715 297.024 6.67367 297.293 6.63788L297.284 6.53166C297.468 6.49125 297.653 6.44623 297.844 6.40004C298.003 6.21532 298.264 6.21301 298.494 6.16567L298.472 6.06523C298.885 5.96363 299.269 5.77775 299.689 5.68769C299.892 5.54453 300.139 5.49719 300.388 5.45909C300.55 5.37712 300.736 5.31131 300.849 5.15891C301.113 5.1185 301.38 5.07578 301.649 5.02845L301.64 4.91761C302.077 4.88297 302.442 4.61743 302.878 4.56432L302.837 4.43848C303.045 4.42924 303.252 4.41885 303.468 4.40961C303.466 4.36112 303.461 4.26645 303.457 4.21796C303.707 4.20757 303.956 4.19602 304.212 4.18794C304.203 4.13483 304.183 4.02861 304.174 3.97666Z" fill="white"/>
<path d="M325.003 7.23345C325.687 7.19304 326.305 6.85592 326.999 6.84668C326.988 7.12723 326.692 7.17226 326.489 7.28079C326.281 7.3847 326.051 7.43203 325.827 7.45859C325.835 7.49322 325.854 7.56365 325.862 7.59944C325.687 7.6283 325.516 7.65717 325.349 7.68488L325.356 7.79802C325.181 7.8315 325.013 7.86845 324.847 7.90424L324.873 8.00699C324.683 8.05549 324.404 8.01623 324.339 8.23559C324.068 8.28293 323.801 8.33258 323.536 8.38107L323.566 8.47343C323.368 8.53462 323.181 8.6062 323.014 8.71588C322.863 8.73782 322.717 8.75745 322.575 8.77707C322.578 8.81979 322.583 8.90523 322.586 8.9491C322.336 8.96296 322.07 8.95718 321.917 9.17308C321.708 9.22157 321.501 9.26776 321.299 9.31509C321.21 9.52406 320.972 9.49635 320.787 9.52637C320.672 9.75728 320.359 9.7111 320.146 9.76767L320.181 9.88774C320.001 9.92123 319.827 9.95471 319.655 9.98588L319.674 10.1048C319.403 10.166 319.132 10.2133 318.86 10.2156C318.958 10.2514 319.061 10.2861 319.166 10.3219C318.979 10.3773 318.69 10.3103 318.652 10.5505C318.212 10.5897 317.851 10.8576 317.423 10.9372C317.296 11.0896 317.089 11.1012 316.911 11.1404C316.8 11.3448 316.526 11.3298 316.332 11.3944C316.25 11.6172 315.97 11.5561 315.783 11.6045L315.806 11.7154C315.639 11.7569 315.426 11.7373 315.368 11.9232C315.165 11.9925 314.827 11.9174 314.797 12.1864C314.635 12.1934 314.478 12.2014 314.324 12.2084C314.328 12.2557 314.335 12.3492 314.337 12.3966C313.842 12.3677 313.47 12.7129 313 12.766L313.026 12.893C312.847 12.9219 312.669 12.9507 312.498 12.9796L312.537 13.0974C312.363 13.1297 312.189 13.1655 312.023 13.2001L312.044 13.3248C311.844 13.371 311.573 13.3214 311.502 13.55C311.29 13.6111 310.943 13.5222 310.921 13.8074C310.833 13.8074 310.655 13.8086 310.565 13.8097C310.569 13.8605 310.577 13.9633 310.581 14.0141C310.373 14.0268 310.162 14.0406 309.963 14.0556C309.968 14.1041 309.979 14.2034 309.983 14.2531C309.885 14.2554 309.691 14.2612 309.593 14.2635C309.598 14.3143 309.605 14.4147 309.61 14.4644C309.353 14.5128 308.978 14.4216 308.846 14.6883C308.65 14.7345 308.46 14.7807 308.272 14.8269L308.302 14.9458C308.108 14.9839 307.917 15.0278 307.735 15.0763C307.608 15.2552 307.39 15.2771 307.189 15.291C307.189 15.3222 307.19 15.3868 307.191 15.418C306.997 15.4607 306.746 15.4203 306.666 15.6362C306.513 15.6743 306.358 15.7089 306.213 15.7436L306.233 15.8717C306.085 15.8844 305.939 15.8971 305.799 15.9121C305.713 16.2435 305.214 16.0507 305.099 16.3474C305.031 16.3486 304.895 16.352 304.828 16.3532C304.789 16.4074 304.712 16.5148 304.673 16.5679C304.501 16.5852 304.334 16.6026 304.171 16.6199C304.171 16.6626 304.17 16.7492 304.168 16.7919C304.076 16.7977 303.891 16.8081 303.798 16.8138C303.799 16.8623 303.802 16.957 303.803 17.0043C303.549 17.0274 303.301 17.0678 303.06 17.1244L303.087 17.2399C302.719 17.338 302.362 17.4777 302.061 17.6994C301.887 17.764 301.668 17.771 301.581 17.9511C301.501 17.9615 301.34 17.9799 301.259 17.9903C301.264 18.0354 301.271 18.1242 301.275 18.1693C301.041 18.2108 300.699 18.1185 300.617 18.3979C300.409 18.4464 300.203 18.496 300.003 18.5468C299.901 18.7223 299.694 18.7477 299.513 18.7754C299.203 19.019 298.826 19.1668 298.444 19.2638C298.355 19.37 298.242 19.4358 298.107 19.4635L298.136 19.5559C297.724 19.6159 297.395 19.8942 296.98 19.938C296.898 20.1597 296.636 20.1308 296.444 20.1724C296.446 20.2128 296.449 20.2948 296.45 20.3352C296.365 20.3479 296.194 20.3745 296.108 20.3872C295.957 20.5476 295.744 20.6007 295.532 20.625C295.474 20.8201 295.249 20.7982 295.094 20.8455L295.119 20.9575C294.948 20.9979 294.781 21.0395 294.619 21.081L294.636 21.1872C294.465 21.223 294.238 21.193 294.217 21.4089C294.038 21.4482 293.867 21.4886 293.697 21.5325C293.585 21.7507 293.31 21.7287 293.103 21.7818C293.043 21.9943 292.807 21.9804 292.63 22.0254C292.571 22.1859 292.403 22.2079 292.259 22.2425C292.162 22.4365 291.938 22.4318 291.753 22.4653C291.7 22.635 291.514 22.6547 291.371 22.7124C291.205 22.7944 291.033 22.8671 290.866 22.9352L290.885 23.0426C290.788 23.0495 290.594 23.0657 290.499 23.0726C290.5 23.1165 290.501 23.2019 290.502 23.2446C290.304 23.2827 290.058 23.2643 289.968 23.4732C289.783 23.5171 289.589 23.5529 289.484 23.7145C289.4 23.7226 289.236 23.7388 289.154 23.7469C289.162 23.7988 289.179 23.9027 289.187 23.9558C288.977 23.9709 288.768 23.987 288.567 24.0032C288.568 24.0436 288.57 24.1244 288.572 24.1648C288.371 24.1948 288.183 24.2549 288.038 24.3888C287.891 24.4419 287.724 24.4696 287.67 24.6266C287.488 24.6728 287.271 24.6647 287.182 24.8483C287.009 24.9141 286.821 24.9499 286.704 25.0919C286.526 25.1427 286.339 25.1762 286.222 25.3217C286.058 25.3817 285.896 25.444 285.759 25.5456C285.475 25.7038 285.193 25.8758 284.87 25.9474C284.829 26.146 284.613 26.1206 284.456 26.1541L284.471 26.2499C284.149 26.3677 283.848 26.5247 283.556 26.6921C283.424 26.7625 283.279 26.8156 283.193 26.9346C282.879 27.0373 282.549 27.1551 282.348 27.4206C282.203 27.431 282.063 27.4403 281.928 27.4495C281.93 27.5003 281.936 27.603 281.94 27.6538C281.742 27.7 281.483 27.6712 281.394 27.8848C281.241 27.9275 281.093 27.9679 280.948 28.0083L280.964 28.1007C280.805 28.1549 280.64 28.1988 280.539 28.3327C280.405 28.38 280.275 28.4251 280.152 28.4747C279.744 28.7507 279.303 28.9977 278.842 29.1848C278.748 29.2771 278.642 29.3522 278.526 29.4099L278.531 29.4907C278.345 29.5404 278.063 29.4861 278.032 29.7239C277.744 29.799 277.5 29.9652 277.244 30.0969C277.076 30.1846 276.917 30.2839 276.779 30.404C276.609 30.4536 276.443 30.5021 276.281 30.5517C276.227 30.7065 276.077 30.7561 275.935 30.7988C275.802 30.927 275.627 30.9939 275.45 31.0274C275.373 31.1152 275.29 31.196 275.202 31.2699C275.056 31.3703 274.886 31.4303 274.723 31.4846C274.629 31.6105 274.485 31.6636 274.343 31.7097C274.258 31.8933 274.035 31.8864 273.87 31.943C273.793 32.055 273.685 32.1323 273.55 32.1727L273.575 32.2524C273.421 32.2974 273.273 32.3447 273.127 32.3898C272.973 32.4948 272.82 32.6011 272.674 32.7107C272.441 32.81 272.221 32.9313 271.991 33.0271C271.991 33.0617 271.989 33.131 271.989 33.1645C271.626 33.1783 271.407 33.4577 271.091 33.5697C270.906 33.8087 270.585 33.8849 270.36 34.0789C270.23 34.1493 270.063 34.1805 270.003 34.3236C269.85 34.3606 269.687 34.3791 269.646 34.5418C269.316 34.6146 269.045 34.7993 268.807 35.0187C268.507 35.0833 268.287 35.2831 268.07 35.4724C267.922 35.5174 267.77 35.5555 267.705 35.7033C267.531 35.7541 267.353 35.8038 267.236 35.94C267.103 36.007 266.975 36.0739 266.856 36.1524C266.733 36.2321 266.612 36.3094 266.496 36.3891C266.364 36.4595 266.203 36.4988 266.135 36.6373C265.98 36.6708 265.823 36.6951 265.786 36.8602C265.638 36.9121 265.478 36.9479 265.415 37.0992C265.24 37.15 265.063 37.2019 264.946 37.3393C264.848 37.3855 264.755 37.4328 264.665 37.479C264.549 37.5737 264.426 37.6533 264.298 37.7226C264.143 37.8161 263.996 37.9189 263.859 38.0286C263.759 38.0771 263.664 38.1267 263.572 38.1775C263.429 38.2826 263.269 38.3622 263.104 38.4153C262.96 38.5689 262.783 38.6878 262.609 38.8021C262.55 38.816 262.43 38.8437 262.371 38.8575C262.328 39.0296 262.156 39.0584 262.013 39.1023C261.856 39.3136 261.604 39.4233 261.392 39.5699C261.202 39.7015 260.933 39.7465 260.832 39.9659C260.777 39.9705 260.669 39.9786 260.615 39.982L260.634 40.1079C260.52 40.1495 260.408 40.1899 260.302 40.2314C260.158 40.3469 260.015 40.4646 259.861 40.5605C259.732 40.6332 259.61 40.7129 259.495 40.7972C259.402 40.8456 259.311 40.8941 259.224 40.9449C259.107 41.0315 258.985 41.1089 258.864 41.1839C258.712 41.2867 258.564 41.3906 258.408 41.4795C258.307 41.5418 258.219 41.6157 258.143 41.7C257.885 41.827 257.594 41.9309 257.431 42.1722C257.291 42.2311 257.156 42.2946 257.069 42.4158C256.926 42.4632 256.761 42.4828 256.736 42.6467C256.583 42.6837 256.437 42.7322 256.338 42.8511C256.248 42.9261 256.164 43.0046 256.085 43.0878C255.927 43.1259 255.768 43.164 255.734 43.3395C255.666 43.3522 255.532 43.3776 255.464 43.3903C255.418 43.5427 255.271 43.5946 255.135 43.6443C254.956 43.7551 254.763 43.8625 254.656 44.0437C254.6 44.0437 254.485 44.0437 254.428 44.0437C254.433 44.0957 254.442 44.1996 254.447 44.2527C254.247 44.3 253.974 44.2573 253.918 44.5009C253.865 44.5079 253.76 44.5217 253.707 44.5298C253.714 44.5806 253.729 44.6833 253.736 44.7341C253.639 44.7399 253.448 44.7503 253.352 44.7549C253.357 44.808 253.366 44.9143 253.37 44.9674C253.276 44.9708 253.087 44.9801 252.993 44.9847C252.994 45.0366 252.995 45.1417 252.997 45.1937C252.922 45.2029 252.77 45.2202 252.695 45.2294C252.617 45.3241 252.541 45.4188 252.468 45.5135C252.406 45.5238 252.282 45.5458 252.22 45.5562C252.052 45.7582 251.811 45.8794 251.597 46.0261C251.46 46.1796 251.256 46.2189 251.064 46.2477C251.066 46.2893 251.071 46.3713 251.073 46.4117C250.506 46.6576 250.067 47.1079 249.531 47.4069C249.409 47.505 249.283 47.6009 249.209 47.7371C249.128 47.744 248.967 47.759 248.886 47.7671C248.888 47.8122 248.895 47.9034 248.897 47.9484C248.73 47.9842 248.528 47.983 248.486 48.1758C248.343 48.2266 248.199 48.2751 248.119 48.4044C247.997 48.4829 247.877 48.5603 247.762 48.6411C247.647 48.7208 247.537 48.8039 247.426 48.8813C240.144 53.8331 232.93 58.8796 225.796 64.0265C217.707 69.8547 209.655 75.729 201.542 81.5248C198.093 84.0105 194.597 86.4339 191.121 88.8838C187.443 91.4331 183.762 93.9823 179.999 96.4195C176.079 98.9676 172.146 101.501 168.103 103.871C161.715 107.673 155.05 111.064 148.13 113.9C143.763 115.599 139.292 117.1 134.672 118.035C131.753 118.626 128.788 119.002 125.809 119.156C122.74 119.3 119.648 119.247 116.612 118.769C111.9 118.097 107.305 116.655 103.12 114.477C99.1197 112.389 95.5087 109.643 92.4022 106.464C91.184 105.23 90.1098 103.879 88.9739 102.579C87.9456 101.405 87.0335 100.138 85.9254 99.0288C84.2439 97.2127 82.4765 95.4636 80.5591 93.8726C78.2389 91.8302 75.7566 89.9564 73.1642 88.2385C66.0548 83.5937 58.211 80.0239 50.0685 77.3661C49.3778 77.1768 48.7136 76.8905 47.9987 76.7935C47.7894 76.6157 47.5063 76.6134 47.2438 76.5949C47.2451 76.5637 47.2475 76.4991 47.2487 76.4679C46.9838 76.4275 46.72 76.3905 46.4563 76.3513C46.4285 76.3178 46.3716 76.2508 46.3438 76.2174C45.8067 76.0881 45.2841 75.8918 44.7228 75.8802C44.7216 75.8387 44.718 75.7544 44.7168 75.7128C44.4639 75.7013 44.2135 75.6909 43.9619 75.684C43.9655 75.647 43.974 75.5731 43.9788 75.5362C43.7684 75.5085 43.5603 75.4842 43.3498 75.4611L43.3704 75.3388C43.045 75.3018 42.722 75.2522 42.3978 75.2094L42.4171 75.0882C42.0869 75.0501 41.7566 75.012 41.4264 74.9878L41.4469 74.8631C41.1578 74.8227 40.8699 74.7811 40.5808 74.7488L40.6086 74.6276C40.207 74.5675 39.8042 74.5213 39.3989 74.5029C39.3989 74.4602 39.3965 74.3759 39.3965 74.3332C39.1497 74.3158 38.9053 74.2985 38.6598 74.2835L38.6755 74.1623C38.4372 74.1265 38.1529 74.1611 37.9775 73.9718C37.5589 73.9187 37.1416 73.8609 36.723 73.8148L36.7448 73.7005C36.4666 73.6704 36.1896 73.6381 35.9149 73.5919C35.5218 73.2837 34.8976 73.5423 34.5202 73.234C34.248 73.1751 33.9685 73.1497 33.6903 73.1359L33.7036 73.0158C33.3407 72.9777 32.9778 72.9292 32.6149 72.8911L32.6245 72.778C32.3415 72.7583 32.0608 72.7329 31.7814 72.6914C31.3495 72.3947 30.7144 72.629 30.2705 72.3358C29.916 72.2815 29.5592 72.2411 29.2011 72.218L29.218 72.1003C28.6894 72.0991 28.1728 71.9767 27.6454 71.9744L27.6744 71.8532C27.2982 71.7943 26.9184 71.7539 26.5361 71.7608C26.5397 71.7273 26.5482 71.6592 26.5518 71.6246C26.1442 71.598 25.7389 71.5484 25.33 71.5253L25.347 71.4064C24.7409 71.3925 24.1421 71.2828 23.5348 71.2794L23.5626 71.1535C23.1755 71.1235 22.7606 71.1478 22.4098 70.9619C21.9695 70.9261 21.5316 70.8741 21.0912 70.8522L21.0803 70.7391C20.317 70.7391 19.5646 70.589 18.8025 70.5959L18.823 70.4631C18.1686 70.4654 17.5226 70.3188 16.8669 70.365C16.873 70.3292 16.8863 70.2599 16.8923 70.2253C16.2403 70.2057 15.5931 70.1133 14.9399 70.1295L14.9592 69.9932C14.3447 70.0082 13.7386 69.8778 13.1229 69.9113L13.1193 69.7935C12.3983 69.7993 11.6845 69.6723 10.9636 69.6977C10.9611 69.6619 10.9551 69.5903 10.9527 69.5545C9.69458 69.603 8.44495 69.3963 7.18686 69.4506L7.19654 69.3097C6.08603 69.3351 4.97915 69.2093 3.86743 69.2289C3.62791 69.2139 3.35572 69.2659 3.15128 69.1111C2.26094 69.0996 1.36939 69.0684 0.479043 69.0788C0.315733 69.058 0.0677435 69.125 0 68.9264C0.0846794 68.7059 0.354444 68.7809 0.545577 68.744L0.527432 68.6413C0.996797 68.5789 1.40689 68.3226 1.8823 68.2903L1.8702 68.1771C2.08069 68.1471 2.28997 68.1136 2.50046 68.0825L2.48111 67.9612C2.73152 67.9277 2.98192 67.8862 3.23112 67.8446L3.21661 67.7315C3.74041 67.7338 4.16865 67.3978 4.68761 67.3747L4.65253 67.2523C4.8606 67.2373 5.06746 67.22 5.27432 67.2062C5.27311 67.1634 5.26948 67.0792 5.26706 67.0376C5.5586 67.0226 5.84772 66.9833 6.13321 66.9244L6.11506 66.809C6.43805 66.7663 6.75863 66.712 7.08162 66.6716L7.06468 66.5411C7.27275 66.5192 7.48203 66.4938 7.69131 66.473C7.69131 66.4395 7.6901 66.3737 7.6901 66.3414C7.9768 66.3068 8.26229 66.264 8.54899 66.2248L8.52359 66.1036C8.75585 66.0759 8.98932 66.0435 9.21675 65.9858C9.57845 65.7734 10.026 65.7884 10.4337 65.726L10.4265 65.6337C10.5837 65.6244 10.6986 65.5563 10.7712 65.4316C11.2527 65.3993 11.7257 65.3069 12.2059 65.2561C12.3015 65.0668 12.5374 65.0968 12.7188 65.0495C13.0757 64.8555 13.5027 64.8763 13.8923 64.7909C14.1427 64.5565 14.5128 64.6223 14.831 64.598L14.8032 64.4676C15.0584 64.4422 15.3137 64.4133 15.5701 64.3868L15.552 64.2702C15.9403 64.2332 16.3274 64.1813 16.7133 64.1281C17.006 63.8695 17.4694 63.97 17.8371 63.8926L17.8274 63.7772C18.1553 63.7079 18.5593 63.7922 18.8206 63.5555C19.221 63.455 19.694 63.5451 20.0485 63.3177C20.2831 63.2784 20.5202 63.2518 20.7585 63.2334C20.7525 63.1999 20.7416 63.1329 20.7356 63.0995C21.1154 63.0902 21.4916 63.044 21.8678 62.9955L21.834 62.8778C22.1509 62.8685 22.4715 62.857 22.7775 62.7681C22.8888 62.633 23.0776 62.663 23.2336 62.6399C23.6389 62.6076 24.0405 62.543 24.4457 62.5106C24.7276 62.1781 25.2175 62.416 25.5998 62.3813L25.6046 62.5002C26.1998 62.5187 26.7865 62.6411 27.3841 62.6503C27.3829 62.6838 27.3817 62.7531 27.3805 62.7877C27.7095 62.8258 28.041 62.8535 28.3724 62.8651L28.3591 62.9875C28.6531 63.0129 28.947 63.0475 29.2422 63.0798L29.2144 63.1976C29.6221 63.2172 30.0273 63.2703 30.4338 63.3188L30.4144 63.4447C30.7084 63.4504 31.0011 63.4608 31.2951 63.4735C31.2939 63.5162 31.2927 63.5994 31.2927 63.6421C31.8092 63.6871 32.3221 63.7749 32.8423 63.7933L32.8242 63.9146C33.1834 63.9711 33.5439 64.0196 33.9068 64.045C33.908 64.0773 33.9081 64.1432 33.9081 64.1755C34.0847 64.1951 34.2625 64.2124 34.4403 64.2297L34.4234 64.3487C34.8661 64.381 35.3041 64.4491 35.7456 64.493L35.719 64.6154C36.0117 64.6465 36.3033 64.6835 36.596 64.7147L36.5767 64.8382C36.9408 64.8878 37.3061 64.934 37.6739 64.9617C37.6702 65.0044 37.6642 65.0922 37.6606 65.1361C37.9872 65.1534 38.3138 65.1707 38.6416 65.1846C38.6392 65.2307 38.6344 65.3231 38.6319 65.3704C38.8799 65.382 39.1291 65.3958 39.3783 65.4074L39.3469 65.5471C39.4485 65.5482 39.6529 65.5505 39.7546 65.5505C39.7533 65.5956 39.7521 65.6833 39.7509 65.7272C40.2312 65.7399 40.6981 65.8565 41.176 65.8877L41.1566 66.017C41.4094 66.0608 41.6659 66.0886 41.9236 66.1024L41.8957 66.2283C42.18 66.271 42.4655 66.3137 42.7522 66.3483L42.728 66.4742C42.9058 66.4984 43.0825 66.525 43.2603 66.5515L43.2482 66.6647C43.6305 66.7085 44.0103 66.7686 44.3926 66.8171C44.4966 67.1323 44.914 66.9845 45.1752 67.0388C45.1716 67.0849 45.1644 67.1761 45.1607 67.2223C45.37 67.2304 45.5817 67.2419 45.7934 67.25C45.7874 67.287 45.7741 67.362 45.768 67.399C46.0535 67.4348 46.3402 67.4705 46.6269 67.5017C46.6245 67.5433 46.6184 67.6264 46.616 67.668C46.8604 67.6864 47.1071 67.7072 47.3539 67.7257C47.3515 67.7661 47.3491 67.8481 47.3467 67.8896C47.5656 67.9174 47.7846 67.9508 48.0023 67.9924C48.3205 68.1817 48.6858 68.2741 49.0403 68.3826C57.8348 71.2794 66.4467 74.8792 74.1695 79.8761C80.1007 83.7057 85.5709 88.2258 90.1884 93.4593C91.5675 94.9336 92.7421 96.565 94.0159 98.119C95.4046 99.7827 96.7668 101.48 98.3829 102.952C101.757 106.037 105.749 108.512 110.09 110.166C114.581 111.833 119.417 112.635 124.234 112.529C129.959 112.493 135.608 111.312 141.042 109.66C145.947 108.176 150.641 106.136 155.238 103.945C159.554 101.875 163.749 99.583 167.89 97.2081C175.442 92.8555 182.747 88.1253 189.956 83.2751C193.778 80.6866 197.628 78.1362 201.401 75.4831C216.626 64.9941 231.557 54.1102 247.133 44.0945C247.228 44.0264 247.326 43.956 247.42 43.8809C247.465 43.8417 247.555 43.762 247.601 43.7228C247.757 43.6835 247.952 43.6731 247.982 43.4803C248.034 43.4745 248.138 43.4641 248.19 43.4584C248.189 43.4099 248.187 43.3129 248.186 43.2644C248.379 43.2171 248.66 43.2575 248.701 43.0023C248.757 43.0012 248.869 42.9989 248.926 42.9977C248.921 42.9492 248.91 42.8534 248.905 42.8049C249.104 42.761 249.307 42.7148 249.513 42.6698L249.497 42.5636C249.736 42.4366 250.004 42.3188 250.161 42.0914C250.241 42.081 250.401 42.0614 250.48 42.0521C250.478 42.0013 250.473 41.8997 250.472 41.8501C250.54 41.8455 250.675 41.8374 250.744 41.8328C250.737 41.7889 250.725 41.7012 250.719 41.6561C250.906 41.618 251.096 41.5672 251.284 41.5072C251.419 41.3883 251.561 41.2751 251.705 41.162C251.85 41.1135 251.999 41.0627 252.151 41.0154C252.15 40.9703 252.147 40.8826 252.146 40.8387C252.238 40.8306 252.423 40.8145 252.516 40.8064C252.513 40.7648 252.508 40.6805 252.504 40.639C252.737 40.6032 252.925 40.4681 253.105 40.3284C253.383 40.1633 253.662 39.9982 253.931 39.8158C254.049 39.7465 254.203 39.7073 254.274 39.5745C254.523 39.4383 254.822 39.324 254.984 39.0838C255.148 39.0723 255.334 39.0711 255.347 38.8644C255.49 38.8229 255.636 38.7825 255.787 38.7444C255.889 38.6301 255.991 38.5135 256.089 38.3934C256.17 38.3865 256.332 38.3738 256.413 38.368C256.41 38.3172 256.407 38.2156 256.406 38.1648C256.485 38.1613 256.644 38.1567 256.724 38.1544C256.765 38.1048 256.848 38.0043 256.889 37.9535C257.188 37.8577 257.425 37.6418 257.733 37.5598L257.714 37.4432C257.781 37.4409 257.915 37.4363 257.982 37.434C257.982 37.3855 257.983 37.2897 257.984 37.2412C258.074 37.2331 258.255 37.2192 258.345 37.2111C258.342 37.1638 258.337 37.0691 258.334 37.023C258.513 36.9664 258.812 37.0299 258.84 36.7851C258.996 36.7539 259.156 36.7066 259.23 36.5507C259.372 36.5057 259.522 36.463 259.673 36.4214L259.66 36.3291C259.868 36.1617 260.198 36.1189 260.323 35.8684C260.497 35.8245 260.747 35.8603 260.793 35.6375C261.218 35.4643 261.605 35.2069 262.022 35.0106C262.143 34.8386 262.343 34.7981 262.552 34.7901C262.552 34.7439 262.552 34.6538 262.553 34.6088C262.619 34.6053 262.749 34.5973 262.815 34.5938L262.804 34.4876C262.942 34.4252 263.078 34.3513 263.209 34.2659C263.47 34.1204 263.727 33.9576 264.018 33.8641L264.005 33.7475C264.073 33.7487 264.209 33.7498 264.278 33.7498C264.273 33.6979 264.263 33.594 264.258 33.542C264.355 33.5385 264.547 33.5316 264.644 33.5282C264.641 33.4785 264.636 33.3781 264.634 33.3273C264.828 33.2822 265.143 33.3619 265.157 33.0883C265.24 33.0813 265.407 33.0675 265.49 33.0606C265.489 33.0132 265.484 32.9186 265.483 32.8724C265.667 32.8262 265.944 32.8805 265.999 32.6461C266.566 32.3782 267.119 32.0815 267.676 31.794L267.643 31.7051C267.811 31.6774 268.03 31.689 268.048 31.4696C268.232 31.4211 268.522 31.4696 268.517 31.2087C268.576 31.2145 268.696 31.2237 268.757 31.2295C268.754 31.1787 268.749 31.0771 268.747 31.0274C268.945 30.9824 269.147 30.9339 269.353 30.8877L269.339 30.7873C269.555 30.6326 269.861 30.5668 270.001 30.3278C270.167 30.2747 270.424 30.3139 270.465 30.0957C270.882 29.9375 271.25 29.6743 271.661 29.4942L271.639 29.3764C271.706 29.3741 271.84 29.3706 271.907 29.3683C271.903 29.321 271.895 29.2263 271.891 29.179C272.085 29.1374 272.381 29.1998 272.414 28.9377C272.59 28.8973 272.839 28.9308 272.899 28.7114C273.069 28.6675 273.239 28.6029 273.38 28.492C273.514 28.4308 273.666 28.3812 273.76 28.2554C273.882 28.2057 274.006 28.1584 274.136 28.1099C274.375 27.8732 274.783 27.842 274.958 27.5442C275.04 27.5372 275.203 27.5257 275.284 27.5199C275.282 27.468 275.276 27.3652 275.273 27.3133C275.369 27.3086 275.559 27.2982 275.653 27.2925C275.65 27.2428 275.644 27.1435 275.64 27.0939C275.86 27.0408 276.236 27.1516 276.263 26.8457C276.419 26.8226 276.609 26.8307 276.656 26.6378C276.863 26.5917 277.088 26.557 277.246 26.4012C277.492 26.2557 277.75 26.1229 278.027 26.0306C278.099 25.8274 278.357 25.8724 278.535 25.8123C278.535 25.7858 278.532 25.7327 278.531 25.7061C278.677 25.6461 278.871 25.6334 278.958 25.4775C279.1 25.4325 279.239 25.3909 279.39 25.3505L279.384 25.2455C279.529 25.1947 279.76 25.2154 279.789 25.0111C279.974 24.9661 280.164 24.9222 280.358 24.8829L280.335 24.7582C280.536 24.7086 280.738 24.6624 280.946 24.6232C280.944 24.5816 280.941 24.4973 280.938 24.4546C281.08 24.4384 281.225 24.4211 281.376 24.4027C281.422 24.2583 281.528 24.1833 281.694 24.1798L281.664 24.0782C281.837 24.0424 282.013 24.0066 282.193 23.9709L282.151 23.8589C282.351 23.8415 282.534 23.7619 282.678 23.621C282.764 23.6083 282.936 23.5806 283.022 23.5679C283.02 23.524 283.017 23.4386 283.015 23.3959C283.205 23.352 283.514 23.4282 283.536 23.1638C283.705 23.113 283.978 23.1719 284.039 22.9479C284.214 22.9017 284.451 22.9191 284.525 22.7124C284.699 22.6628 284.967 22.7055 284.995 22.4699C285.139 22.4515 285.287 22.433 285.441 22.4168C285.44 22.373 285.437 22.2875 285.436 22.2448C285.616 22.1859 285.927 22.2598 285.954 22.0081C286.176 21.9885 286.416 21.97 286.571 21.7865C286.714 21.7426 286.885 21.7195 286.945 21.5555C287.164 21.5047 287.39 21.4563 287.618 21.4147L287.593 21.3039C287.776 21.26 287.957 21.2127 288.147 21.1653C288.244 20.9621 288.487 20.9748 288.685 20.9309L288.673 20.8501C288.958 20.6666 289.275 20.5511 289.612 20.483C289.704 20.2994 289.937 20.3167 290.112 20.2498C290.442 20.0281 290.875 19.9646 291.176 19.706C291.333 19.6298 291.614 19.6771 291.653 19.4554C291.797 19.4427 291.946 19.4312 292.1 19.4196C292.097 19.3723 292.088 19.2776 292.083 19.2291C292.247 19.2176 292.414 19.2049 292.584 19.1934C292.582 19.146 292.577 19.0525 292.573 19.0052C292.777 18.989 292.976 18.9705 293.187 18.9532C293.182 18.9047 293.172 18.8089 293.167 18.7604C293.332 18.7523 293.501 18.7454 293.674 18.7385C293.672 18.6911 293.667 18.5976 293.665 18.5514C294.145 18.5491 294.542 18.302 294.978 18.1647L294.97 18.07C295.325 17.9568 295.728 17.8772 296.01 17.6209C296.176 17.5631 296.414 17.592 296.505 17.4038C296.735 17.3646 296.963 17.2918 297.162 17.1625C297.318 17.114 297.544 17.1221 297.553 16.9062C297.747 16.8993 297.94 16.8935 298.144 16.8877C298.14 16.8404 298.132 16.7457 298.127 16.6995C298.336 16.6649 298.549 16.6257 298.765 16.5864L298.731 16.4629C299.128 16.464 299.442 16.2008 299.83 16.1558C299.833 16.1211 299.838 16.0518 299.84 16.0172C300.028 15.9676 300.299 16.0103 300.375 15.7863C300.557 15.7632 300.739 15.7413 300.932 15.7216C300.929 15.6789 300.92 15.5923 300.917 15.5485C301.402 15.5542 301.814 15.321 302.255 15.1744L302.246 15.0797C302.425 15.0231 302.736 15.0993 302.775 14.8442C302.959 14.8234 303.143 14.8038 303.339 14.7842C303.335 14.7414 303.329 14.6572 303.325 14.6144C303.556 14.5821 303.878 14.6468 303.993 14.387C304.183 14.3489 304.38 14.3108 304.578 14.2762L304.54 14.1538C304.808 14.1284 305.104 14.1191 305.31 13.9217C305.468 13.8478 305.748 13.9067 305.806 13.6943C306.01 13.6389 306.342 13.7381 306.408 13.4726C306.618 13.4322 306.832 13.3895 307.049 13.3433C307.13 13.1309 307.401 13.2174 307.58 13.1551C307.58 13.1193 307.581 13.0477 307.582 13.0108C307.858 12.9658 308.136 12.9138 308.418 12.8688L308.393 12.751C308.584 12.7164 308.776 12.6771 308.975 12.6367C309.121 12.497 309.313 12.4347 309.521 12.4104L309.504 12.31C309.804 12.2534 310.108 12.1991 310.417 12.1587C310.46 11.8966 310.765 11.9913 310.967 11.9555L310.938 11.8251C311.226 11.7246 311.669 11.832 311.837 11.5283C312.004 11.5099 312.181 11.4937 312.361 11.4775C312.377 11.2005 312.698 11.2986 312.9 11.2593L312.87 11.1243C313.109 11.0839 313.352 11.0446 313.6 11.01L313.588 10.8876C313.796 10.8529 314.006 10.8195 314.222 10.7894L314.198 10.6648C314.407 10.6336 314.62 10.6001 314.838 10.5724C314.838 10.5389 314.84 10.4731 314.84 10.4408C315.04 10.4108 315.248 10.3784 315.456 10.3484L315.436 10.2237C315.638 10.2041 315.836 10.1845 316.048 10.1648C316.048 10.1244 316.049 10.0459 316.049 10.0067C316.322 9.97087 316.597 9.93162 316.876 9.89121C316.878 9.85773 316.881 9.79192 316.884 9.75844C317.123 9.72034 317.367 9.67877 317.614 9.64067L317.596 9.53099C317.811 9.49751 318.028 9.46056 318.249 9.42477L318.206 9.30239C318.508 9.26429 318.812 9.21926 319.118 9.165C319.258 8.88214 319.625 8.97797 319.892 8.93294L319.889 8.81748C320.077 8.77707 320.268 8.73551 320.463 8.69164C320.688 8.53 320.977 8.52192 321.251 8.48728L321.223 8.37068C321.506 8.32796 321.79 8.28409 322.079 8.24483L322.058 8.1236C322.263 8.09705 322.469 8.06703 322.683 8.04048C322.683 8.00584 322.683 7.93888 322.684 7.9054C322.929 7.87307 323.178 7.83612 323.429 7.80033L323.403 7.67911C323.964 7.70335 324.445 7.37777 325 7.35699C325 7.32582 325.002 7.26462 325.003 7.23345Z" fill="#046A38"/>
<path d="M268.565 8.72213C268.807 8.51662 269.172 8.0294 269.5 8.42426C269.263 8.56396 269.019 8.67941 268.765 8.77062C268.748 8.97959 268.529 8.97498 268.368 9.00384C268.369 9.05233 268.373 9.14816 268.375 9.19549C268.278 9.19665 268.086 9.19665 267.989 9.19665C267.995 9.24629 268.009 9.34443 268.016 9.39407C267.851 9.43679 267.663 9.44257 267.591 9.61113C267.458 9.68156 267.334 9.75198 267.22 9.83857C267.087 9.90669 266.949 9.96788 266.869 10.0926C266.763 10.1388 266.659 10.1849 266.558 10.2311C266.19 10.5024 265.772 10.7033 265.427 11.0012C265.296 11.0728 265.172 11.1467 265.055 11.2263C264.8 11.3626 264.556 11.5127 264.341 11.6974C264.11 11.8105 263.893 11.9398 263.688 12.0842C263.54 12.1892 263.392 12.292 263.248 12.3924C263.13 12.4663 263.019 12.5402 262.91 12.6164C262.687 12.7746 262.46 12.927 262.196 13.0078L262.208 13.0863C261.84 13.2629 261.531 13.5296 261.169 13.7132C261.056 13.8287 260.902 13.8829 260.758 13.936L260.755 14.0019C260.62 14.0492 260.521 14.1323 260.456 14.2501C260.396 14.2616 260.275 14.2847 260.214 14.2963C260.052 14.4337 259.894 14.5734 259.74 14.7154C259.588 14.7604 259.438 14.8054 259.293 14.8504C259.295 14.9012 259.301 15.0052 259.305 15.0571C259.225 15.0606 259.065 15.0675 258.985 15.0721C258.889 15.1887 258.789 15.2996 258.687 15.4069C258.539 15.46 258.4 15.5235 258.284 15.6194C258.164 15.7002 258.047 15.7775 257.931 15.8514C257.558 16.0743 257.201 16.3179 256.841 16.5557C256.739 16.6053 256.641 16.6561 256.547 16.7069C256.429 16.7866 256.314 16.8674 256.205 16.9494C256.091 17.0464 255.976 17.1422 255.867 17.238C255.593 17.3466 255.361 17.5186 255.145 17.7045C255.01 17.7668 254.881 17.8315 254.78 17.9331C254.667 18.0127 254.557 18.0924 254.45 18.1732C254.341 18.2171 254.236 18.261 254.136 18.3048C254.021 18.478 253.81 18.5161 253.623 18.5577C253.624 18.6062 253.628 18.7043 253.63 18.7528C253.566 18.754 253.438 18.7551 253.374 18.7563C253.375 18.8117 253.375 18.9202 253.375 18.9756C253.294 18.9791 253.13 18.9883 253.049 18.9929C253.029 19.2054 252.815 19.2054 252.648 19.2435C252.649 19.2885 252.653 19.3762 252.655 19.4201C252.562 19.4294 252.377 19.449 252.284 19.4582C252.286 19.5079 252.29 19.6072 252.291 19.658C252.215 19.6683 252.063 19.6914 251.988 19.703C251.814 19.9408 251.547 20.0817 251.307 20.2456C251.237 20.2745 251.097 20.3311 251.026 20.3599C250.92 20.4892 250.796 20.6012 250.665 20.704C250.468 20.7709 250.296 20.8783 250.153 21.0192C250.093 21.0365 249.972 21.0711 249.911 21.0884C249.871 21.2524 249.705 21.2836 249.567 21.332C249.489 21.4221 249.408 21.5041 249.321 21.5803C249.124 21.7119 248.815 21.7292 248.737 21.9774C248.686 21.9797 248.584 21.9844 248.534 21.9867L248.541 22.0917C248.3 22.213 248.086 22.3711 247.884 22.5409C247.757 22.6194 247.634 22.6979 247.513 22.7764C247.381 22.8503 247.255 22.9242 247.138 23.0107C247.054 23.0835 246.973 23.1574 246.897 23.2313C246.748 23.2809 246.588 23.319 246.542 23.483C246.484 23.4968 246.366 23.5234 246.308 23.5361C245.968 23.8455 245.544 24.0475 245.185 24.3292C245.05 24.4401 244.885 24.507 244.725 24.5682C244.506 24.888 244.082 24.9816 243.865 25.3025C243.714 25.3499 243.556 25.3891 243.511 25.5542C243.453 25.5692 243.337 25.6004 243.277 25.6166C243.161 25.7436 243.006 25.829 242.839 25.8682C242.839 25.904 242.838 25.9756 242.838 26.0114C242.525 26.0691 242.261 26.2377 242.063 26.4686C241.919 26.5206 241.777 26.5771 241.701 26.7087C241.595 26.7595 241.492 26.8092 241.391 26.8588C241.353 26.9016 241.277 26.9858 241.239 27.0286C241.055 27.1175 240.882 27.2202 240.719 27.3334C240.505 27.5296 240.263 27.6982 239.982 27.7906C239.963 27.9787 239.793 28.003 239.636 28.0249C239.376 28.3251 239.03 28.5433 238.672 28.7188C238.573 28.8308 238.436 28.8931 238.308 28.9566C238.137 29.0848 237.95 29.1956 237.828 29.3688C237.765 29.3734 237.64 29.3827 237.577 29.3873C237.54 29.587 237.339 29.6101 237.18 29.6609C237.178 29.7059 237.173 29.7948 237.171 29.8399C237.12 29.8422 237.021 29.8479 236.97 29.8503C236.937 30.0292 236.77 30.065 236.617 30.1008C236.467 30.3144 236.214 30.4241 236.001 30.5661C235.885 30.6527 235.761 30.7254 235.642 30.797C235.538 30.9251 235.376 30.9748 235.228 31.0267C235.129 31.126 235.032 31.2253 234.939 31.3269C234.691 31.4297 234.426 31.5474 234.328 31.8072C234.247 31.8118 234.086 31.8234 234.005 31.828C234.007 31.8765 234.012 31.9712 234.016 32.0185C233.676 32.0393 233.507 32.3683 233.178 32.4122C233.176 32.4584 233.175 32.5496 233.174 32.5958C233.086 32.6027 232.908 32.6154 232.819 32.6223C232.817 32.672 232.812 32.7701 232.809 32.8197C232.744 32.8221 232.616 32.8267 232.552 32.829L232.58 32.9837C232.524 32.9872 232.414 32.9918 232.359 32.9952C232.315 33.1395 232.215 33.2227 232.056 33.2423C232.059 33.2862 232.063 33.3739 232.066 33.4166C231.975 33.4213 231.795 33.4293 231.704 33.4328C231.702 33.479 231.696 33.5737 231.692 33.6198C231.437 33.651 231.273 33.8392 231.067 33.9558C230.722 34.1752 230.366 34.3818 230.069 34.6566C230.015 34.6728 229.91 34.7051 229.857 34.7224C229.793 34.7825 229.665 34.9037 229.599 34.9637C222.283 40.0414 215.14 45.3408 207.914 50.5339C196.551 58.7796 185.167 67.0058 173.451 74.792C165.874 79.8824 158.064 84.6968 149.79 88.6984C145.796 90.5873 141.69 92.2879 137.424 93.5371C134.56 94.3753 131.605 94.9491 128.615 95.1593C126.15 95.2689 123.652 95.2689 121.234 94.7448C118.597 94.216 116.036 93.2577 113.801 91.8099C110.152 89.5459 107.442 86.2323 104.718 83.0574C102.699 80.6871 100.462 78.4958 98.1502 76.3864C95.7804 74.2886 93.3706 72.2208 90.777 70.3747C87.4987 67.9559 84.0958 65.6884 80.5587 63.6252C76.6465 61.3762 72.5685 59.3292 68.2112 57.9807C67.4055 57.7151 66.5636 57.5604 65.7676 57.2695C70.8121 56.9601 75.8686 56.7188 80.9252 56.8746C81.328 56.8689 81.6631 57.1044 81.9946 57.2914C89.2806 61.3658 96.0199 66.3327 101.989 72.0361C105.43 75.3773 108.675 78.8964 111.92 82.4097C113.319 83.8448 114.622 85.3791 116.222 86.6214C117.922 87.9746 119.893 89.0367 122.029 89.6175C124.867 90.3991 127.864 90.2848 130.767 89.9661C135.91 89.3508 140.849 87.7032 145.569 85.7093C154.371 81.9628 162.642 77.19 170.684 72.1469C172.473 71.0086 174.254 69.8586 176.046 68.7249C179.884 66.201 183.697 63.6437 187.501 61.0737C195.081 55.8863 202.652 50.684 210.198 45.4504C215.274 41.9429 220.369 38.4585 225.483 35.0007L225.33 34.973L225.254 34.9591C225.455 34.8933 225.792 34.9857 225.844 34.7051C225.9 34.7005 226.009 34.6901 226.063 34.6855C226.057 34.6381 226.044 34.5446 226.037 34.4984C226.308 34.4846 226.548 34.3761 226.708 34.1602C226.782 34.1475 226.928 34.1232 227.002 34.1105C226.998 34.062 226.991 33.965 226.987 33.9166C227.069 33.9073 227.229 33.8865 227.31 33.8761C227.335 33.6937 227.509 33.6637 227.671 33.6222C227.736 33.5217 227.805 33.4213 227.875 33.3197C228.007 33.2735 228.142 33.225 228.279 33.1765C228.329 33.0172 228.486 32.9802 228.635 32.9329C228.794 32.7262 229.073 32.657 229.261 32.4745C229.381 32.3995 229.506 32.3256 229.633 32.2506C229.741 32.1478 229.867 32.0624 230.014 32.0116L230.021 31.9388C230.175 31.9192 230.272 31.8372 230.312 31.6941C230.392 31.686 230.549 31.6698 230.627 31.6617C230.629 31.619 230.631 31.5313 230.632 31.4886C230.78 31.4262 231.005 31.4378 231.051 31.2426C231.104 31.2357 231.209 31.2207 231.261 31.2126C231.254 31.1641 231.237 31.0671 231.229 31.0175C231.434 30.9979 231.711 31.0025 231.759 30.7473C231.813 30.752 231.923 30.7589 231.978 30.7623C231.976 30.7127 231.974 30.6111 231.971 30.5615C232.153 30.5118 232.336 30.4599 232.523 30.4079C232.54 30.2324 232.701 30.2001 232.856 30.1585C232.937 30.0777 233.02 29.998 233.11 29.9207C233.296 29.8353 233.476 29.7244 233.605 29.5628C233.672 29.5431 233.807 29.505 233.874 29.4854C233.981 29.4023 234.09 29.3192 234.206 29.2384C234.367 29.1079 234.53 28.9786 234.697 28.8504C234.754 28.8354 234.869 28.8066 234.926 28.7927C234.979 28.6345 235.134 28.5953 235.284 28.5491C235.361 28.466 235.446 28.3875 235.536 28.3136C235.659 28.2143 235.809 28.1565 235.963 28.1057L235.95 28.0192C236.156 27.9464 236.365 27.8621 236.513 27.6959C236.568 27.6809 236.682 27.652 236.738 27.6382C236.796 27.5354 236.878 27.4523 236.983 27.3888C237.104 27.3126 237.229 27.2375 237.358 27.1659C237.516 27.069 237.662 26.9558 237.808 26.8392C237.862 26.8311 237.968 26.815 238.021 26.8069C238.02 26.7642 238.016 26.6787 238.014 26.636C238.201 26.5968 238.393 26.5413 238.534 26.4028C238.616 26.3451 238.701 26.2885 238.791 26.2308C238.899 26.1165 239.049 26.0564 239.202 26.0022L239.193 25.8971C239.262 25.8913 239.403 25.8798 239.472 25.874C239.468 25.8244 239.461 25.7251 239.457 25.6743C239.527 25.6812 239.668 25.6928 239.738 25.6997C239.733 25.6443 239.723 25.5323 239.718 25.4769C239.812 25.4676 239.998 25.4491 240.091 25.4388C240.089 25.3903 240.085 25.2933 240.083 25.2448C240.178 25.2379 240.369 25.2229 240.465 25.2159C240.46 25.1697 240.449 25.0762 240.443 25.0289C240.669 24.9966 240.909 24.9538 241.062 24.7714C241.151 24.7252 241.243 24.6791 241.337 24.6329C241.405 24.4839 241.562 24.4493 241.71 24.4031C241.858 24.2888 242.008 24.1757 242.163 24.0648C242.218 24.0591 242.324 24.0498 242.377 24.0452C242.372 23.9944 242.363 23.8951 242.358 23.8443C242.432 23.8351 242.579 23.8166 242.653 23.8074C242.814 23.6319 243.031 23.5176 243.243 23.4033C243.363 23.3282 243.488 23.2544 243.612 23.1782C243.841 22.9853 244.1 22.8272 244.405 22.7694C244.406 22.7267 244.407 22.6401 244.407 22.5974C244.458 22.5916 244.56 22.5801 244.61 22.5743C244.748 22.4485 244.897 22.3284 245.054 22.2187C245.185 22.1818 245.321 22.1402 245.457 22.0964C245.517 21.9474 245.668 21.9035 245.814 21.8527C245.988 21.6622 246.217 21.526 246.448 21.4025C246.596 21.3032 246.743 21.2039 246.897 21.1058C247.021 21.0284 247.171 20.9707 247.257 20.8414C247.314 20.8321 247.429 20.8125 247.486 20.8021C247.644 20.6613 247.83 20.5504 247.995 20.413C248.134 20.3599 248.298 20.3184 248.335 20.1509C248.391 20.1509 248.503 20.1486 248.559 20.1475C248.557 20.0967 248.55 19.9951 248.548 19.9443C248.775 19.8969 249.146 19.9812 249.171 19.6626C249.215 19.6649 249.303 19.6695 249.346 19.6718C249.383 19.4236 249.7 19.4559 249.817 19.2619C249.979 19.2042 250.184 19.1857 250.279 19.0195C250.628 18.874 250.938 18.6674 251.259 18.4711C251.405 18.4318 251.566 18.3926 251.593 18.2171C251.674 18.209 251.836 18.1905 251.916 18.1813C251.916 18.1317 251.916 18.0301 251.916 17.9793C251.996 17.9723 252.157 17.9585 252.238 17.9515C252.262 17.7518 252.465 17.746 252.633 17.7033L252.634 17.6248C252.901 17.4874 253.157 17.3339 253.405 17.1653C253.616 17.0268 253.831 16.8905 254.066 16.7831C254.213 16.685 254.36 16.5811 254.505 16.4714C254.938 16.3005 255.305 16.0165 255.701 15.7798C256.135 15.5963 256.527 15.3365 256.926 15.0906C257.032 15.0121 257.144 14.9347 257.257 14.8562C257.393 14.8066 257.535 14.7581 257.68 14.7084C257.853 14.5179 258.081 14.3817 258.338 14.3159C258.338 14.2789 258.336 14.2062 258.336 14.1704C258.978 14.0538 259.455 13.5793 260.038 13.3276L260.035 13.2445C260.193 13.2029 260.357 13.1556 260.454 13.0124C260.625 12.9547 260.802 12.9004 260.984 12.8496V12.7873C261.089 12.7145 261.193 12.6383 261.297 12.5575C261.425 12.5009 261.557 12.4467 261.696 12.3936C261.896 12.2689 262.093 12.1373 262.284 11.9941C262.345 11.9849 262.467 11.9675 262.529 11.9595C262.634 11.8117 262.791 11.7112 262.946 11.6096C263.014 11.5935 263.149 11.5612 263.217 11.545C263.372 11.4203 263.545 11.3199 263.731 11.2344C263.893 11.1478 264.042 11.0393 264.18 10.9158C264.348 10.8696 264.52 10.8257 264.696 10.7807C264.845 10.5278 265.171 10.4609 265.414 10.3096C265.548 10.1907 265.725 10.1399 265.899 10.081C265.965 9.93209 266.126 9.89861 266.274 9.84319C266.548 9.67578 266.89 9.57765 267.088 9.31441C267.246 9.24052 267.487 9.25668 267.573 9.07196C267.738 9.01654 267.948 9.01192 268.063 8.85837C268.121 8.82488 268.237 8.75677 268.295 8.72329C268.363 8.72329 268.497 8.72213 268.565 8.72213Z" fill="#FF671F"/>
<defs>
<filter id="filter0_d_89_669" x="43.998" y="48.8838" width="207.428" height="102.593" filterUnits="userSpaceOnUse" color-interpolation-filters="sRGB">
<feFlood flood-opacity="0" result="BackgroundImageFix"/>
<feColorMatrix in="SourceAlpha" type="matrix" values="0 0 0 0 0 0 0 0 0 0 0 0 0 0 0 0 0 0 127 0" result="hardAlpha"/>
<feOffset dy="4"/>
<feGaussianBlur stdDeviation="2"/>
<feComposite in2="hardAlpha" operator="out"/>
<feColorMatrix type="matrix" values="0 0 0 0 0 0 0 0 0 0 0 0 0 0 0 0 0 0 0.25 0"/>
<feBlend mode="normal" in2="BackgroundImageFix" result="effect1_dropShadow_89_669"/>
<feBlend mode="normal" in="SourceGraphic" in2="effect1_dropShadow_89_669" result="shape"/>
</filter>
</defs>
</svg>
