<svg id="Layer_1" data-name="Layer 1" xmlns="http://www.w3.org/2000/svg" viewBox="0 0 560.93 300"><defs><style>.cls-1,.cls-2{fill-rule:evenodd;}.cls-2{fill:#999;}</style></defs><title>India Post</title><path id="Path_26608" data-name="Path 26608" class="cls-1" d="M83.4,67.83H426.14V261.51H83.4Z"/><path id="Path_26609" data-name="Path 26609" class="cls-2" d="M424.4,90.82a82.26,82.26,0,0,1-10,7.2c-14.29,9.24-35,25.49-49.61,35.83-13.54,9.7-25.88,19.1-39.62,28.56-32.08,22.09-77,54.38-118.47,51.93a59.91,59.91,0,0,1-26-8.1c-16.58-9.34-20.73-22.19-33.67-34.48a145.54,145.54,0,0,0-40.57-27.59c-5-2.5-23.34-9.2-24-10-9-2-33.52-10.8-41.77-9.35A279.37,279.37,0,0,0,10,132.57L0,135.92c.85,1.2-.5,1,5,.9a160,160,0,0,1,27.63,2.5c2.19.3,3.54.3,5.54.65,12.74,2.3,17.14,3.2,30,6.39a110.78,110.78,0,0,1,14.39,4.1c10.89,1.4,36.27,15.5,45.62,22.2a161.88,161.88,0,0,1,13.69,11.54c1.5,1.81,2.89,2.7,4.39,4.45A221.77,221.77,0,0,0,162,207c29.23,26.84,64.95,23.64,102.38,5.45,26.53-12.95,58.66-36.24,82-53.88,18.83-14.3,39.27-30,58.3-43.93,3-2.25,18-13.4,20-14.2l39.22-26.64c3.14-2.35,8.64-5.3,12.44-7.5l17-9.49c1.6-.9,2.84-1.4,4.33-2.3l13.19-6.7,2.1-1,39-17.64,4.7-1.95c2.25-.95,3.55-1.3,4.29-2.35a87.82,87.82,0,0,0-14.48,4.1c-10,3.2-30.48,11.4-41,16.14l-37.72,19.1L424.49,90.84Z"/><path id="Path_26610" data-name="Path 26610" class="cls-2" d="M417.35,75.33l-39.22,27.58c-24.68,18.15-52.41,38.19-77.85,55.33-24.18,16.3-64.95,41.59-96.28,34.49-20.93-5-26.73-20.6-36.22-30a170.92,170.92,0,0,0-58.5-41.13c-13.64-6.45-12.65-5-26.94-3.75l-21.23,2.8c1.08,1.44,0,.65,5,1.55l5.54,1.08c2,.4,3.75.85,5.4,1.25a37.72,37.72,0,0,1,5,1.4c12,2,37.22,14.1,47.92,20.29,43.62,25.44,39.57,53.58,79.34,57.88,31.68,3.4,72.65-23,96.23-40,13.34-9.65,26.83-19.25,39.62-28.94s26-20,39.17-29.49c3.8-2.8,36.28-27.24,40-28.79l41-26.69,54.15-28.64c1.35-.6,2.35-.7,3.1-1.75a265.51,265.51,0,0,0-28.73,11.5c-12.69,6.44-19.63,9.19-33,17.09-2.3,1.35-4.34,2.35-6.45,3.75l-3,1.85L448,55.91l-3,1.89-15.43,10c-4.2,2.5-8.94,6.14-12.39,8Z"/><path id="Path_26611" data-name="Path 26611" class="cls-2" d="M386.32,75.33l-78.44,56.42c-22.94,15.35-63.91,44.44-92.24,42.59-20.48-1.3-51.16-50-75.44-59.38-3.55-1.35-21.88,0-26.78.3,1.6,1,7.89,2.8,10,3.85a145.41,145.41,0,0,1,27.18,15.8,151.3,151.3,0,0,1,29.68,27.44c7.84,10,17.19,21,36.17,21,16,0,32.88-7.35,44.12-13.55A344.22,344.22,0,0,0,295.79,148c11.29-8.1,22.13-15.64,33.17-23.94s21.53-16.19,32.52-24.58C365,96.78,391,76.74,394.36,75L402.8,69c.8-.65,1.15-.85,2.05-1.5L460.26,29.1c.95-.65,1.55-1,1.95-2-3.5,1.8-6.55,3.44-10,5.49L432.78,44.35c-1.55,1-3,1.7-4.7,2.85L409.44,59.49c-1.69,1.15-3.09,1.95-5,3.2-5,3.69-13.79,9.09-18.39,12.65Z"/><path id="Path_26612" data-name="Path 26612" d="M93,34.39V30.44l-1.45.36H89.44a6.9,6.9,0,0,1-2.94-.55,9.06,9.06,0,0,1-4.25-4.2,8.27,8.27,0,0,1-.55-3A7.27,7.27,0,0,1,83,19.15a6.68,6.68,0,0,1,3.1-2.65,10.9,10.9,0,0,1,3.39-.7H91a4.87,4.87,0,0,1,1.35.5,7.56,7.56,0,0,1,4.15,3.9,8.31,8.31,0,0,1,.6,2.95V34.3h4.24v2.05H97.13v4.1A8,8,0,0,1,95,45.69a7.13,7.13,0,0,1-5,2.2,6.91,6.91,0,0,1-7-3.8,6.71,6.71,0,0,1-.49-2.5,7.19,7.19,0,0,1,2-5,6.71,6.71,0,0,1,5-2.2Zm-1.85,12,1-1.08.6-1.55V36.44h-.55a5.46,5.46,0,0,0-5.4,5.39v2a4.5,4.5,0,0,0,1.55,2.6l1.15.36a5,5,0,0,0,1.2-.36Zm.7-18.84A7.78,7.78,0,0,0,93,23.21a5.46,5.46,0,0,0-.3-2.05A4.71,4.71,0,0,0,90.89,18a4.48,4.48,0,0,0-1.45-.55,2.43,2.43,0,0,0-1.39.5L87,19.16,86.11,21v2.2a7.46,7.46,0,0,0,1,4.2,3.15,3.15,0,0,0,2.6,1.8,3.52,3.52,0,0,0,2.45-1.65Zm19.43-11.31v2.2h-5V48.12a1.61,1.61,0,0,0,.65,1l1,.8h1.2v1.37h-10V49.94c1.2.3,2.15-.36,2.8-1.9V18.45h-4.5V16.23Zm11.1,0v2.2h-5V48.12a1.45,1.45,0,0,0,.65,1l1,.8h1.2v1.37h-10V49.94c1.25.3,2.19-.36,2.84-1.9V18.45h-4.49V16.23Zm21.28,2.2H131.56a12.89,12.89,0,0,1,6.14,4.33l1.09,1.65.7,1.5.45,1.65v1.85a10,10,0,0,1-3.4,7.4l-1.81,1.3-1.89.9a7.41,7.41,0,0,1-2.1.6h-2.4c4.45,6.15,7.59,9.25,9.34,9.25h.95a2.67,2.67,0,0,0,1-.36l1-.6,1.15-1,.6,1.5a6.09,6.09,0,0,1-1.08,1.4l-1.45,1-.8.36h-2.94a9.1,9.1,0,0,1-2.75-.45,10.81,10.81,0,0,1-2.75-1.4A17.64,17.64,0,0,1,126,43.43a6.32,6.32,0,0,0-1-1.6l-1.2-1.35a4.08,4.08,0,0,0-1.25-1l-1.4-.7v-1.5l2.3.7h3.1a8.16,8.16,0,0,0,2.45-.4,7.58,7.58,0,0,0,2.29-1.15,9.9,9.9,0,0,0,3.2-4.4,10,10,0,0,0,.65-3.8,9.5,9.5,0,0,0-5.49-8.89,18.41,18.41,0,0,0-4-1.45h-5v-2.2H143.4v2.2Zm30.88,0h-4.7v30a1.61,1.61,0,0,0,.65,1l.95.8H173v1.35H163V49.93h1.15l1-.65a3.9,3.9,0,0,0,.7-1.2l.25-1.3V29.24a8.71,8.71,0,0,0-4.5-1.9h-2.15a8.88,8.88,0,0,0-8.2,5.6,8.65,8.65,0,0,0-.7,3.55V38a17.25,17.25,0,0,0,1,5.6,22.94,22.94,0,0,0,3,6l-3.61,1.89a22.4,22.4,0,0,1-4.6-13.73,12.28,12.28,0,0,1,2.1-7A12.85,12.85,0,0,1,154,26.2a14.22,14.22,0,0,1,5-.9h2.64l1,.3,1.69.65,1.85.95V18.46H144.5V16.23h30l.6,2.4ZM175.38,1A11.82,11.82,0,0,1,181,8.33a21,21,0,0,1,.8,5.4v2.5h4.65v2.2h-4.65V48.12a3.62,3.62,0,0,0,.65,1.08l1.05.7h1.2v1.39h-10.3V49.94c1.31.3,2.25-.36,2.85-1.9V18.45H173V16.23h4.49V13.7a20.44,20.44,0,0,0-1.44-8c-.95-2.3-2.1-3.5-3.5-3.7a4.4,4.4,0,0,0-2.19.55,6.16,6.16,0,0,0-3.26,3.8,9.14,9.14,0,0,0-.44,2.7V11.3a1.89,1.89,0,0,0,0,1l.55,1.4.79,1.7h-4.09a5.16,5.16,0,0,1-.7-1.2l-.8-1.55v-1.2l-.3-.45V9.05a8.47,8.47,0,0,1,.6-3.3,9.24,9.24,0,0,1,1.89-3A8.7,8.7,0,0,1,171,0a7.54,7.54,0,0,1,3.9,1.05Zm41.47,17.45h-4.6V46.87a4,4,0,0,0,.9,2.4l.95.74h1.15v1.45h-10V49.91a3,3,0,0,0,2.79-1.9V42.69a10,10,0,0,1-9,4.65,11.35,11.35,0,0,1-8.74-4.4,15.87,15.87,0,0,1-3.8-10.8v-2.2l2.45.75h4a5,5,0,0,0,3.3-1.44l1.05-1.65a6.86,6.86,0,0,0,.36-2.1,8,8,0,0,0-1.4-4.2,8.36,8.36,0,0,0-3.65-3h-7.54V16h31.53V18.3ZM197.7,32.72a10.38,10.38,0,0,1-2.7.45h-3.75l-.55-.4a16.21,16.21,0,0,0,.65,4.75,11.32,11.32,0,0,0,5,6.55A7.81,7.81,0,0,0,200,45h1.25a3.18,3.18,0,0,0,1.15,0h1.05l1.15-.5,1.85-1.25a5.74,5.74,0,0,0,1.65-1.75v-23H196.75a4.32,4.32,0,0,1,2.15.95,7.52,7.52,0,0,1,3.25,5v1.4a7.2,7.2,0,0,1-4.49,6.7Zm62.9-14.29h-5v8.31h-9.54a6.9,6.9,0,0,0-2.3.3,4.5,4.5,0,0,0-3.61,3.2c0,.8.55,1.55,1.75,2.3l1.9.75h8a6.19,6.19,0,0,1,4,1.4A7.78,7.78,0,0,1,258.58,38a8.76,8.76,0,0,1,.55,3,9.29,9.29,0,0,1-3.64,7.19,13.25,13.25,0,0,1-8.9,3.05,14.45,14.45,0,0,1-10.74-5,19.88,19.88,0,0,1-3.9-5.49,31.46,31.46,0,0,1-2-6.9h1.81a18.45,18.45,0,0,0,1.2,6,15.5,15.5,0,0,0,7.69,7.74,11.81,11.81,0,0,0,5,1,11.07,11.07,0,0,0,3.9-.7,7.83,7.83,0,0,0,3.45-2.7,6.76,6.76,0,0,0,1.6-4.3,5.79,5.79,0,0,0-1.5-3.85,5,5,0,0,0-3.85-1.8h-5a15.78,15.78,0,0,1-3.69-.37,8.33,8.33,0,0,1-3-1.2,4.29,4.29,0,0,1-.6-7.79,8.63,8.63,0,0,1,5.35-1.55h8.06v-6H228.64V16.23h31.53v2.2Zm11.89-2.2v2.2h-5V48.12a1.65,1.65,0,0,0,.65,1l.95.8h1.2v1.37h-10V49.94c1.2.3,2.15-.36,2.8-1.9l.25-1.34V18.45h-4.5V16.23Zm40.83,2.2H293.38v8.31a11.71,11.71,0,0,1,7.7-3.4,8.55,8.55,0,0,1,5.49,2,11,11,0,0,1,3.75,5.25,15.66,15.66,0,0,1,.75,4.5,12.58,12.58,0,0,1-2.85,8.1,11.48,11.48,0,0,1-3.3,2.7,7.55,7.55,0,0,1-3.85.85h-2.7l-.8-.3-1.7-.8-.7-.5V43.69l1.81.36h3.85a6.32,6.32,0,0,0,1.4-.44,7.89,7.89,0,0,0,3.44-3.3,9.47,9.47,0,0,0,1.3-5,9.11,9.11,0,0,0-2.4-6.05,7.88,7.88,0,0,0-4-2.4h-2.65a1.36,1.36,0,0,0-.8,0h-1.5l-1,.5a3.85,3.85,0,0,0-1.2.75v20a2.65,2.65,0,0,0,.55,1l1.05.74h1.08v1.4h-10V49.94c1.14.3,2-.36,2.64-1.9L289,46.7V43.2a12.06,12.06,0,0,1-7.74,3.45A9.19,9.19,0,0,1,274,43.2a12.05,12.05,0,0,1-2.89-8.2,12,12,0,0,1,2.94-8.25,12.4,12.4,0,0,1,3.3-2.6,6.9,6.9,0,0,1,1.9-.7,9.55,9.55,0,0,1,2,0h2.15a1.77,1.77,0,0,1,1.15.36l1.08.5a7.27,7.27,0,0,1,1.81,1.09L289,26.9V18.45H269.47V16.23h43.41v2.2Zm-32.88,8.34a8.07,8.07,0,0,0-4.1,4.7,9.9,9.9,0,0,1-.45,1.7,10.94,10.94,0,0,0,0,1.81,9.14,9.14,0,0,0,2.2,6.29,6.81,6.81,0,0,0,5.44,2.55h.8a5.77,5.77,0,0,0,2.35-.5,4.68,4.68,0,0,0,1.35-.55,14.22,14.22,0,0,0,1.44-1V28.24l-1.39-.85-1.5-.65L285,26.38l-1.4-.3a7.13,7.13,0,0,0-1.6,0,6.37,6.37,0,0,0-1.45.55Z"/><path id="Path_26613" data-name="Path 26613" d="M288.25,296V277.76a2,2,0,0,0-.37-1.4,1.71,1.71,0,0,0-1.3-.4h-1.64v-1.55h10V276h-1.7a1.56,1.56,0,0,0-1.25.4,2.06,2.06,0,0,0-.4,1.4V296a2.19,2.19,0,0,0,.4,1.4,1.63,1.63,0,0,0,1.25.4h1.7v1.55H285V297.8h1.64a1.79,1.79,0,0,0,1.31-.4,2.24,2.24,0,0,0,.36-1.4Zm10.89.36V286a1,1,0,0,0-.25-.75,1.71,1.71,0,0,0-.95,0h-1.2v-1.4h5.15v3h0a9.12,9.12,0,0,1,1-2,5,5,0,0,1,3.9-1.85,3.88,3.88,0,0,1,3.3,1.65,6.78,6.78,0,0,1,1.25,4.34v7.35a1.3,1.3,0,0,0,.91,1.6,1.34,1.34,0,0,0,.69,0h.85v1.4h-7.65v-1.4H307a1.3,1.3,0,0,0,1.6-.91,1.16,1.16,0,0,0,0-.69v-7.79a4.31,4.31,0,0,0-.74-2.7,2.38,2.38,0,0,0-2.05-1,3.23,3.23,0,0,0-2.7,1.35,5.3,5.3,0,0,0-1.08,3.5h0v6.6a2,2,0,0,0,.36,1.25,1.7,1.7,0,0,0,1.25.36h.85v1.4h-7.65V298h.85a1.31,1.31,0,0,0,1.6-.91,1.34,1.34,0,0,0,0-.69Zm22.43,3.5a5.44,5.44,0,0,1-4.5-2.35,10,10,0,0,1-1.69-6.15,10.27,10.27,0,0,1,1.69-6,4.94,4.94,0,0,1,8.4-.3v.4h0v-8.86a.91.91,0,0,0-.3-.75,2.44,2.44,0,0,0-1.2,0h-1.09v-1.4h5.78V296.7a1.8,1.8,0,0,0,.5,1.4,3,3,0,0,0,1.7.4h.3v1.35h-5.24v-2.8h0l-.37.7a4.18,4.18,0,0,1-3.79,2.25Zm.55-15.35a2.92,2.92,0,0,0-2.7,1.75,11.34,11.34,0,0,0-.95,5,11.15,11.15,0,0,0,.95,5,3,3,0,0,0,5.35,0,13.7,13.7,0,0,0,0-10,2.84,2.84,0,0,0-2.65-1.8ZM335,296.36V286a.9.9,0,0,0-.3-.75,2,2,0,0,0-1.08,0h-1.45v-1.4h5.6v12.5a1.3,1.3,0,0,0,.91,1.6,1.34,1.34,0,0,0,.69,0h.85v1.4h-7.65V298h.85A1.29,1.29,0,0,0,335,297a1.16,1.16,0,0,0,0-.69Zm1.25-21.94a1.56,1.56,0,0,1,1.3.6,2.18,2.18,0,0,1,.55,1.5,2.29,2.29,0,0,1-.55,1.5,1.61,1.61,0,0,1-1.3.6,1.79,1.79,0,0,1-1.3-.6,2.62,2.62,0,0,1-.5-1.5,2.44,2.44,0,0,1,.5-1.5A1.72,1.72,0,0,1,336.21,274.42Zm10.39,25.44a4.22,4.22,0,0,1-3.09-1.05,4,4,0,0,1-1.15-3,4.56,4.56,0,0,1,1.9-3.61A11.49,11.49,0,0,1,349.5,290l2.35-.55h0v-1.7a3.72,3.72,0,0,0-.75-2.55,3.24,3.24,0,0,0-2.45-.85,4,4,0,0,0-2.49.6h0a.78.78,0,0,0,0,.6,2.29,2.29,0,0,0,.4.9,1.91,1.91,0,0,1,0,1,1.56,1.56,0,0,1-1.45,1.65h-.2a1.3,1.3,0,0,1-1.15-.6,2.75,2.75,0,0,1-.45-1.65A3.56,3.56,0,0,1,345,283.8a7,7,0,0,1,4.2-1.2,4.65,4.65,0,0,1,5.48,3.62,4.51,4.51,0,0,1,0,1.83v7.7a2.19,2.19,0,0,0,.3,1.2.91.91,0,0,0,.75.45h1.4a.36.36,0,0,1,0,.25.76.76,0,0,1,0,.3,2.74,2.74,0,0,1-2.6,1.8,2.35,2.35,0,0,1-2.1-1.08,4.43,4.43,0,0,1-.6-1.35h0l-.65.75a6.66,6.66,0,0,1-4.75,1.9Zm5.25-6.35v-2.7h0l-1.4.3a10,10,0,0,0-4,1.6,3.36,3.36,0,0,0-1.15,2.7,2.55,2.55,0,0,0,.7,1.95,2.09,2.09,0,0,0,1.7.75,3.61,3.61,0,0,0,2.94-1.3,4.94,4.94,0,0,0,1.2-3.3Zm18.43,2.5V277.76a2,2,0,0,0-.37-1.4,1.71,1.71,0,0,0-1.3-.4h-1.69v-1.55h10a10.5,10.5,0,0,1,6.45,1.64,6,6,0,0,1,2.09,5,6.68,6.68,0,0,1-2.09,5.4,10,10,0,0,1-6.4,1.81h-3.5v7.85a2.57,2.57,0,0,0,.36,1.4,1.92,1.92,0,0,0,1.3.4h1.7v1.55h-10v-1.55h1.7a1.79,1.79,0,0,0,1.3-.4,2.25,2.25,0,0,0,.36-1.4Zm3.29-9.35h3.62a4.47,4.47,0,0,0,3.61-1.4,8,8,0,0,0,.1-8.24,5,5,0,0,0-3.69-1.15h-2c-.65,0-1.09,0-1.3.36a2.21,2.21,0,0,0-.37,1.5v8.93Zm20,13.2a5.64,5.64,0,0,1-4.7-2.35,11,11,0,0,1,0-12.2,5.49,5.49,0,0,1,4.6-2.49,5.62,5.62,0,0,1,4.69,2.35,10,10,0,0,1,1.81,6.19,9.58,9.58,0,0,1-1.9,6,5.62,5.62,0,0,1-4.59,2.5Zm0-1.4a2.68,2.68,0,0,0,2.49-1.81,12.15,12.15,0,0,0,.86-5.3,12.69,12.69,0,0,0-.84-5.35,2.65,2.65,0,0,0-5,0,12.54,12.54,0,0,0-.85,5.35,12.29,12.29,0,0,0,.85,5.3,2.72,2.72,0,0,0,2.5,1.81Zm18-10a5.84,5.84,0,0,0-1.55-3.15,3.87,3.87,0,0,0-2.79-1.2,3,3,0,0,0-2.05.65,2.38,2.38,0,0,0-.8,1.85,1.86,1.86,0,0,0,.85,1.61,11.46,11.46,0,0,0,3.2,1.2,9.36,9.36,0,0,1,4.14,1.85,4.45,4.45,0,0,1,1,3.3,4.88,4.88,0,0,1-4.55,5.19h-.44a6.89,6.89,0,0,1-4.3-1.6h0l-.85,1.5h-1v-6.5h1.15a6.63,6.63,0,0,0,1.81,3.75,4,4,0,0,0,3.14,1.44,3.87,3.87,0,0,0,2.4-.7,2.4,2.4,0,0,0,.9-1.95,2.3,2.3,0,0,0-1-1.9,11.83,11.83,0,0,0-3.55-1.34,8.22,8.22,0,0,1-3.69-1.7,4.71,4.71,0,0,1-1-3.26A5,5,0,0,1,404,284a4.31,4.31,0,0,1,3.25-1.31,6.24,6.24,0,0,1,3.8,1.35h0l.7-1.25h1v5.66h-1.17Zm6.25,7.55V284.84h-2.45v-1.55a3.62,3.62,0,0,0,2.6-1.55,11.87,11.87,0,0,0,1.4-5.35h1.25v6.9h4.33v1.55h-4.33v10.45a3.6,3.6,0,0,0,.4,1.85,1.43,1.43,0,0,0,1.3.65,2,2,0,0,0,1.81-1.05,9.8,9.8,0,0,0,.7-3.55H426a10.1,10.1,0,0,1-1.15,5,3.76,3.76,0,0,1-3.35,1.65,3.35,3.35,0,0,1-2.6-1,3.89,3.89,0,0,1-1-2.8Z"/></svg>