<svg width="47" height="65" viewBox="0 0 47 65" fill="none" xmlns="http://www.w3.org/2000/svg">
<path d="M23.5978 64.5402C23.5978 64.5402 0.744141 35.1904 0.744141 22.7496C0.744141 19.7946 1.33527 16.8684 2.48378 14.1383C3.63228 11.4081 5.31567 8.92748 7.43783 6.83792C9.56 4.74836 12.0794 3.09084 14.8521 1.95998C17.6248 0.829117 20.5967 0.24707 23.5978 0.24707C26.599 0.24707 29.5708 0.829117 32.3436 1.95998C35.1163 3.09084 37.6357 4.74836 39.7579 6.83792C41.88 8.92748 43.5634 11.4081 44.7119 14.1383C45.8604 16.8684 46.4515 19.7946 46.4515 22.7496C46.4515 35.1904 23.5978 64.5402 23.5978 64.5402ZM23.5978 29.179C25.3296 29.179 26.9904 28.5016 28.215 27.2959C29.4395 26.0901 30.1275 24.4548 30.1275 22.7496C30.1275 21.0445 29.4395 19.4092 28.215 18.2034C26.9904 16.9977 25.3296 16.3203 23.5978 16.3203C21.8661 16.3203 20.2052 16.9977 18.9807 18.2034C17.7562 19.4092 17.0682 21.0445 17.0682 22.7496C17.0682 24.4548 17.7562 26.0901 18.9807 27.2959C20.2052 28.5016 21.8661 29.179 23.5978 29.179Z" fill="#CB0000"/>
</svg>
