<svg width="70" height="69" viewBox="0 0 70 69" fill="none" xmlns="http://www.w3.org/2000/svg">
<path d="M0.662109 0.824219L0.662109 12.6471C4.47237 12.6471 7.58986 16.4304 7.58986 21.092C7.58986 25.7536 4.47237 29.537 0.662109 29.537L0.662109 39.6709C4.47237 39.6709 7.58986 43.4542 7.58986 48.1158C7.58986 52.7774 4.47237 56.5607 0.662109 56.5607L0.662109 68.3836L12.7857 68.3836C12.7857 64.6679 16.6652 61.6277 21.4454 61.6277C26.2255 61.6277 30.105 64.6679 30.105 68.3836L40.4967 68.3836C40.4967 64.6679 44.3762 61.6277 49.1563 61.6277C53.9365 61.6277 57.816 64.6679 57.816 68.3836H69.9396L69.9396 56.5607C66.1293 56.5607 63.0118 52.7774 63.0118 48.1158C63.0118 43.4542 66.1293 39.6709 69.9396 39.6709L69.9396 29.537C66.1293 29.537 63.0118 25.7536 63.0118 21.092C63.0118 16.4304 66.1293 12.6471 69.9396 12.6471L69.9396 0.824219L57.816 0.824219C57.816 4.53999 53.9365 7.58016 49.1563 7.58016C44.3762 7.58016 40.4967 4.53999 40.4967 0.824219L30.105 0.824219C30.105 4.53999 26.2255 7.58016 21.4454 7.58016C16.6652 7.58016 12.7857 4.53999 12.7857 0.824219L0.662109 0.824219ZM14.5176 14.3361L56.0841 14.3361L56.0841 54.8717L14.5176 54.8717L14.5176 14.3361ZM24.9092 17.7141C23.0719 17.7141 21.3098 18.4259 20.0106 19.6928C18.7114 20.9598 17.9815 22.6782 17.9815 24.47C17.9815 26.2618 18.7114 27.9802 20.0106 29.2472C21.3098 30.5142 23.0719 31.226 24.9092 31.226C26.7466 31.226 28.5087 30.5142 29.8079 29.2472C31.1071 27.9802 31.837 26.2618 31.837 24.47C31.837 22.6782 31.1071 20.9598 29.8079 19.6928C28.5087 18.4259 26.7466 17.7141 24.9092 17.7141ZM52.6202 27.848L42.2286 37.9819L35.3008 34.6039L17.9815 51.4938L52.6202 51.4938L52.6202 27.848Z" fill="#CB0000"/>
</svg>
