<svg width="45" height="45" viewBox="0 0 45 45" fill="none" xmlns="http://www.w3.org/2000/svg">
<circle cx="22.5" cy="22.5" r="22.5" fill="#CB0000"/>
<path d="M38.8832 15.2226C38.6974 14.5416 38.3349 13.9207 37.8318 13.4218C37.3287 12.923 36.7026 12.5635 36.0158 12.3792C33.5014 11.6992 23.3821 11.6992 23.3821 11.6992C23.3821 11.6992 13.2622 11.7198 10.7479 12.3998C10.0611 12.5841 9.43497 12.9436 8.93188 13.4425C8.42878 13.9414 8.06627 14.5623 7.88045 15.2433C7.11992 19.6731 6.8249 26.4232 7.90133 30.6758C8.08718 31.3569 8.44969 31.9777 8.95279 32.4766C9.45588 32.9755 10.082 33.335 10.7688 33.5193C13.2831 34.1992 23.4027 34.1992 23.4027 34.1992C23.4027 34.1992 33.5222 34.1992 36.0364 33.5193C36.7232 33.335 37.3494 32.9755 37.8525 32.4766C38.3556 31.9777 38.7181 31.3569 38.904 30.6758C39.7061 26.2397 39.9533 19.4938 38.8832 15.2226Z" fill="white"/>
<path d="M20.1611 27.7678L28.5559 22.9464L20.1611 18.125V27.7678Z" fill="#CB0000"/>
</svg>
